<svg xmlns="http://www.w3.org/2000/svg" viewBox="0 0 967.18 990.55">
  <defs>
    <style>
      .cls-1,
      .cls-10,
      .cls-100,
      .cls-101,
      .cls-102,
      .cls-103,
      .cls-104,
      .cls-105,
      .cls-106,
      .cls-107,
      .cls-108,
      .cls-109,
      .cls-11,
      .cls-110,
      .cls-111,
      .cls-112,
      .cls-113,
      .cls-114,
      .cls-115,
      .cls-116,
      .cls-117,
      .cls-118,
      .cls-119,
      .cls-12,
      .cls-120,
      .cls-121,
      .cls-122,
      .cls-123,
      .cls-124,
      .cls-125,
      .cls-126,
      .cls-127,
      .cls-128,
      .cls-129,
      .cls-13,
      .cls-130,
      .cls-131,
      .cls-132,
      .cls-133,
      .cls-134,
      .cls-135,
      .cls-136,
      .cls-137,
      .cls-138,
      .cls-139,
      .cls-14,
      .cls-140,
      .cls-141,
      .cls-142,
      .cls-143,
      .cls-144,
      .cls-145,
      .cls-146,
      .cls-147,
      .cls-148,
      .cls-149,
      .cls-15,
      .cls-150,
      .cls-151,
      .cls-152,
      .cls-153,
      .cls-16,
      .cls-17,
      .cls-18,
      .cls-19,
      .cls-2,
      .cls-20,
      .cls-21,
      .cls-22,
      .cls-23,
      .cls-24,
      .cls-25,
      .cls-26,
      .cls-27,
      .cls-28,
      .cls-29,
      .cls-3,
      .cls-30,
      .cls-31,
      .cls-32,
      .cls-33,
      .cls-34,
      .cls-35,
      .cls-36,
      .cls-37,
      .cls-38,
      .cls-39,
      .cls-4,
      .cls-40,
      .cls-41,
      .cls-42,
      .cls-43,
      .cls-44,
      .cls-45,
      .cls-46,
      .cls-47,
      .cls-48,
      .cls-49,
      .cls-5,
      .cls-50,
      .cls-51,
      .cls-52,
      .cls-53,
      .cls-54,
      .cls-55,
      .cls-56,
      .cls-57,
      .cls-58,
      .cls-59,
      .cls-6,
      .cls-60,
      .cls-61,
      .cls-62,
      .cls-63,
      .cls-64,
      .cls-65,
      .cls-66,
      .cls-67,
      .cls-68,
      .cls-69,
      .cls-7,
      .cls-70,
      .cls-71,
      .cls-72,
      .cls-73,
      .cls-74,
      .cls-75,
      .cls-76,
      .cls-77,
      .cls-78,
      .cls-79,
      .cls-8,
      .cls-80,
      .cls-81,
      .cls-82,
      .cls-83,
      .cls-84,
      .cls-85,
      .cls-86,
      .cls-87,
      .cls-88,
      .cls-89,
      .cls-9,
      .cls-90,
      .cls-91,
      .cls-92,
      .cls-93,
      .cls-94,
      .cls-95,
      .cls-96,
      .cls-97,
      .cls-98,
      .cls-99 {
        fill: none;
        stroke-miterlimit: 10;
        stroke-width: 0.15px;
      }

      .cls-1 {
        stroke: #f40c84;
      }

      .cls-2 {
        stroke: #f20f86;
      }

      .cls-3 {
        stroke: #f01287;
      }

      .cls-4 {
        stroke: #ed1589;
      }

      .cls-5 {
        stroke: #eb198a;
      }

      .cls-6 {
        stroke: #e91c8c;
      }

      .cls-7 {
        stroke: #e71f8e;
      }

      .cls-8 {
        stroke: #e4228f;
      }

      .cls-9 {
        stroke: #e22591;
      }

      .cls-10 {
        stroke: #e02892;
      }

      .cls-11 {
        stroke: #de2b94;
      }

      .cls-12 {
        stroke: #dc2f96;
      }

      .cls-13 {
        stroke: #d93297;
      }

      .cls-14 {
        stroke: #d73599;
      }

      .cls-15 {
        stroke: #d5389a;
      }

      .cls-16 {
        stroke: #d33b9c;
      }

      .cls-17 {
        stroke: #d03e9d;
      }

      .cls-18 {
        stroke: #ce419f;
      }

      .cls-19 {
        stroke: #cc45a1;
      }

      .cls-20 {
        stroke: #ca48a2;
      }

      .cls-21 {
        stroke: #c84ba4;
      }

      .cls-22 {
        stroke: #c54ea5;
      }

      .cls-23 {
        stroke: #c351a7;
      }

      .cls-24 {
        stroke: #c154a9;
      }

      .cls-25 {
        stroke: #bf57aa;
      }

      .cls-26 {
        stroke: #bc5bac;
      }

      .cls-27 {
        stroke: #ba5ead;
      }

      .cls-28 {
        stroke: #b861af;
      }

      .cls-29 {
        stroke: #b664b1;
      }

      .cls-30 {
        stroke: #b467b2;
      }

      .cls-31 {
        stroke: #b16ab4;
      }

      .cls-32 {
        stroke: #af6db5;
      }

      .cls-33 {
        stroke: #ad71b7;
      }

      .cls-34 {
        stroke: #ab74b9;
      }

      .cls-35 {
        stroke: #a877ba;
      }

      .cls-36 {
        stroke: #a67abc;
      }

      .cls-37 {
        stroke: #a47dbd;
      }

      .cls-38 {
        stroke: #a280bf;
      }

      .cls-39 {
        stroke: #9f82c1;
      }

      .cls-40 {
        stroke: #9d85c2;
      }

      .cls-41 {
        stroke: #9b88c4;
      }

      .cls-42 {
        stroke: #998bc5;
      }

      .cls-43 {
        stroke: #978ec7;
      }

      .cls-44 {
        stroke: #9491c8;
      }

      .cls-45 {
        stroke: #9294ca;
      }

      .cls-46 {
        stroke: #9098cc;
      }

      .cls-47 {
        stroke: #8e9bcd;
      }

      .cls-48 {
        stroke: #8b9ecf;
      }

      .cls-49 {
        stroke: #89a1d0;
      }

      .cls-50 {
        stroke: #87a4d2;
      }

      .cls-51 {
        stroke: #85a7d4;
      }

      .cls-52 {
        stroke: #83aad5;
      }

      .cls-53 {
        stroke: #80aed7;
      }

      .cls-54 {
        stroke: #80b1d8;
      }

      .cls-55 {
        stroke: #7eb4da;
      }

      .cls-56 {
        stroke: #7cb7dc;
      }

      .cls-57 {
        stroke: #79badd;
      }

      .cls-58 {
        stroke: #77bddf;
      }

      .cls-59 {
        stroke: #75c0e0;
      }

      .cls-60 {
        stroke: #73c4e2;
      }

      .cls-61 {
        stroke: #71c7e4;
      }

      .cls-62 {
        stroke: #6ecae5;
      }

      .cls-63 {
        stroke: #6ccde7;
      }

      .cls-64 {
        stroke: #6ad0e8;
      }

      .cls-65 {
        stroke: #68d3ea;
      }

      .cls-66 {
        stroke: #65d6eb;
      }

      .cls-67 {
        stroke: #63daed;
      }

      .cls-68 {
        stroke: #61ddef;
      }

      .cls-69 {
        stroke: #5fe0f0;
      }

      .cls-70 {
        stroke: #5de3f2;
      }

      .cls-71 {
        stroke: #5ae6f3;
      }

      .cls-72 {
        stroke: #58e9f5;
      }

      .cls-73 {
        stroke: #56ecf7;
      }

      .cls-74 {
        stroke: #54f0f8;
      }

      .cls-75 {
        stroke: #51f3fa;
      }

      .cls-76 {
        stroke: #4ff6fb;
      }

      .cls-77 {
        stroke: #4df9ff;
      }

      .cls-78 {
        stroke: #4cf6ff;
      }

      .cls-79 {
        stroke: #4cf3ff;
      }

      .cls-80 {
        stroke: #4bf0fc;
      }

      .cls-81 {
        stroke: #4bedfc;
      }

      .cls-82 {
        stroke: #4ae9fc;
      }

      .cls-83 {
        stroke: #49e6fc;
      }

      .cls-84 {
        stroke: #49e3fc;
      }

      .cls-85 {
        stroke: #48e0fc;
      }

      .cls-86 {
        stroke: #47ddfb;
      }

      .cls-87 {
        stroke: #47dafb;
      }

      .cls-88 {
        stroke: #46d7fb;
      }

      .cls-89 {
        stroke: #46d4fb;
      }

      .cls-90 {
        stroke: #45d1fb;
      }

      .cls-91 {
        stroke: #44cefb;
      }

      .cls-92 {
        stroke: #44cafa;
      }

      .cls-93 {
        stroke: #43c7fa;
      }

      .cls-94 {
        stroke: #42c4fa;
      }

      .cls-95 {
        stroke: #42c1fa;
      }

      .cls-96 {
        stroke: #41befa;
      }

      .cls-97 {
        stroke: #41bbfa;
      }

      .cls-98 {
        stroke: #40b8f9;
      }

      .cls-99 {
        stroke: #3fb5f9;
      }

      .cls-100 {
        stroke: #3fb2f9;
      }

      .cls-101 {
        stroke: #3eaef9;
      }

      .cls-102 {
        stroke: #3eabf9;
      }

      .cls-103 {
        stroke: #3da8f9;
      }

      .cls-104 {
        stroke: #3ca5f8;
      }

      .cls-105 {
        stroke: #3ca2f8;
      }

      .cls-106 {
        stroke: #3b9ff8;
      }

      .cls-107 {
        stroke: #3a9cf8;
      }

      .cls-108 {
        stroke: #3a99f8;
      }

      .cls-109 {
        stroke: #3996f8;
      }

      .cls-110 {
        stroke: #3993f7;
      }

      .cls-111 {
        stroke: #388ff7;
      }

      .cls-112 {
        stroke: #378cf7;
      }

      .cls-113 {
        stroke: #3789f7;
      }

      .cls-114 {
        stroke: #3686f7;
      }

      .cls-115 {
        stroke: #3583f7;
      }

      .cls-116 {
        stroke: #3580f6;
      }

      .cls-117 {
        stroke: #347ff6;
      }

      .cls-118 {
        stroke: #347cf6;
      }

      .cls-119 {
        stroke: #3379f6;
      }

      .cls-120 {
        stroke: #3275f6;
      }

      .cls-121 {
        stroke: #3272f5;
      }

      .cls-122 {
        stroke: #316ff5;
      }

      .cls-123 {
        stroke: #316cf5;
      }

      .cls-124 {
        stroke: #3069f5;
      }

      .cls-125 {
        stroke: #2f66f5;
      }

      .cls-126 {
        stroke: #2f63f5;
      }

      .cls-127 {
        stroke: #2e60f4;
      }

      .cls-128 {
        stroke: #2d5df4;
      }

      .cls-129 {
        stroke: #2d5af4;
      }

      .cls-130 {
        stroke: #2c56f4;
      }

      .cls-131 {
        stroke: #2c53f4;
      }

      .cls-132 {
        stroke: #2b50f4;
      }

      .cls-133 {
        stroke: #2a4df3;
      }

      .cls-134 {
        stroke: #2a4af3;
      }

      .cls-135 {
        stroke: #2947f3;
      }

      .cls-136 {
        stroke: #2944f3;
      }

      .cls-137 {
        stroke: #2841f3;
      }

      .cls-138 {
        stroke: #273ef3;
      }

      .cls-139 {
        stroke: #273af2;
      }

      .cls-140 {
        stroke: #2637f2;
      }

      .cls-141 {
        stroke: #2534f2;
      }

      .cls-142 {
        stroke: #2531f2;
      }

      .cls-143 {
        stroke: #242ef2;
      }

      .cls-144 {
        stroke: #242bf2;
      }

      .cls-145 {
        stroke: #2328f1;
      }

      .cls-146 {
        stroke: #2225f1;
      }

      .cls-147 {
        stroke: #2222f1;
      }

      .cls-148 {
        stroke: #211ff1;
      }

      .cls-149 {
        stroke: #201bf1;
      }

      .cls-150 {
        stroke: #2018f1;
      }

      .cls-151 {
        stroke: #1f15f0;
      }

      .cls-152 {
        stroke: #1f12f0;
      }

      .cls-153 {
        stroke: #1e0ff2;
      }
    </style>
  </defs>
  <g id="图层_2" data-name="图层 2">
    <g id="Layer_1" data-name="Layer 1">
      <path class="cls-1"
        d="M773.14,252.52c232.14,182.18,171.52,554.34-81,685.1C611.28,977.86,540.56,998,449.64,987.91c-50.51-10-111.13-10-131.33-70.4-10.11-50.3,50.51-100.59,20.2-140.82C217.28,585.58,156.67,324.06,389,203.36q106.08-45.27,212.16-30.18c30.3,0,60.61,10.06,90.07,28.42A369.48,369.48,0,0,1,773.14,252.52Z" />
      <path class="cls-2"
        d="M386.46,202.58C456,169.36,528,161.42,599,171.08c20.09,0,40.17,4.24,60,12.24,10.55,4.27,20.61,10.32,31.35,16,28.28,14.93,57.07,30.3,83,51.52a378.29,378.29,0,0,1,72.34,75A373.92,373.92,0,0,1,900,434.07c58.22,185.18-25.11,407-209.42,500.11-33,16.66-64.54,29.47-96.31,38.53-45.84,13.06-92.78,19.67-146.06,11.31-14.78-2.32-30.19-5.07-45.32-8-36.88-7.38-71.49-19.92-86-62.43-10.28-49.94,47.67-98.74,19.18-140C245.74,643,196.37,470.64,252.3,340.44,275.77,285.91,317.16,235.67,386.46,202.58Z" />
      <path class="cls-3"
        d="M383.42,201.27c69.63-33.61,141.71-42.09,213-32.83,20.36,0,40.71,4.19,60.84,12.08,10.72,4.25,21,10.28,31.84,16,28.7,15,57.8,30.6,84.07,52.13,28.3,22.59,52.57,47.7,72.18,75.1a374.47,374.47,0,0,1,54.19,108.2c58.59,185.93-26.64,405.7-211,498.3-33,16.57-64.57,29.34-96.3,38.43-45.85,13.09-92.8,19.43-146,11-14.78-2.35-30.16-5.13-45.28-8.13-36.79-7.55-71.34-20.19-86.1-62.4C304.38,859.48,361.3,811,333,770c-89.71-130.06-138.46-301.49-82.75-431.19C273.67,284.43,314.7,234.44,383.42,201.27Z" />
      <path class="cls-4"
        d="M380.34,199.17c69.67-34,141.83-43,213.35-34.14a171.14,171.14,0,0,1,61.65,11.91c10.91,4.2,21.3,10.24,32.32,15.93,29.14,15,58.54,30.89,85.16,52.73,28.19,22.69,52.54,47.74,72,75.17A375,375,0,0,1,899,429c59,186.68-28.17,404.38-212.57,496.5-33,16.49-64.6,29.22-96.3,38.33-45.86,13.12-92.8,19.18-145.89,10.6-14.77-2.39-30.13-5.2-45.24-8.23-36.7-7.71-71.2-20.46-86.16-62.37-10.63-49.23,45.26-97.41,17.14-138.25-89.16-129.52-137.29-300-81.81-429.23C271.52,282.16,312.18,232.43,380.34,199.17Z" />
      <path class="cls-5"
        d="M377.2,196.36c69.73-34.39,142-43.94,213.75-35.47a177.17,177.17,0,0,1,62.47,11.75c11.09,4.17,21.65,10.21,32.81,15.91,29.56,15.11,59.28,31.18,86.25,53.33,28.08,22.79,52.51,47.77,71.87,75.24a375.42,375.42,0,0,1,54.06,108.17C957.75,612.73,868.71,828.35,684.26,920c-33,16.41-64.62,29.11-96.29,38.24-45.87,13.15-92.82,18.94-145.8,10.24-14.77-2.42-30.11-5.27-45.2-8.31-36.62-7.89-71.06-20.73-86.23-62.35-10.8-48.87,44.06-96.74,16.12-137.39-88.62-129-136.12-298.58-80.87-427.28C269.33,279.18,309.62,229.69,377.2,196.36Z" />
      <path class="cls-6"
        d="M374.12,192.89C443.89,158.11,516.21,148,588.26,156.1a183.12,183.12,0,0,1,63.28,11.59c11.28,4.13,22,10.17,33.3,15.88,30,15.16,60,31.47,87.34,53.93,28,22.9,52.48,47.81,71.71,75.32a378.19,378.19,0,0,1,54,108.15C957.15,609.3,866.66,822.7,682.17,913.86c-33,16.32-64.65,29-96.29,38.13-45.88,13.19-92.82,18.7-145.72,9.89-14.75-2.46-30.08-5.34-45.16-8.4-36.53-8.06-70.9-21-86.29-62.32-11-48.52,42.86-96.08,15.1-136.54C235.73,626.21,188.86,457.5,243.88,329.3,267.17,275.54,307.1,226.3,374.12,192.89Z" />
      <path class="cls-7"
        d="M371,188.83C440.8,153.65,513.2,143,585.52,150.71a189.59,189.59,0,0,1,64.09,11.43c11.46,4.1,22.34,10.13,33.78,15.85,30.43,15.22,60.76,31.76,88.43,54.53,27.86,23,52.46,47.85,71.56,75.39a379.21,379.21,0,0,1,53.93,108.14C956.86,605.16,864.56,816.45,680,907.13c-33,16.24-64.68,28.86-96.28,38-45.89,13.21-92.84,18.46-145.64,9.53-14.74-2.49-30.05-5.4-45.11-8.49-36.44-8.23-70.76-21.28-86.36-62.29-11.15-48.17,41.65-95.42,14.08-135.69-87.54-127.86-134-295.77-79-423.36C264.85,271.25,304.53,222.3,371,188.83Z" />
      <path class="cls-8"
        d="M367.74,184.23c69.87-35.58,142.36-46.72,214.94-39.44a195.93,195.93,0,0,1,64.91,11.26c11.64,4.07,22.69,10.09,34.27,15.82,30.86,15.28,61.49,32.06,89.51,55.14,27.76,23.1,52.43,47.88,71.41,75.46a380.21,380.21,0,0,1,53.87,108.12c59.83,189.9-34.29,399.08-218.87,489.28-33.06,16.16-64.7,28.74-96.27,37.94C535.61,951.06,488.66,956,436,947c-14.74-2.53-30-5.48-45.08-8.59-36.35-8.39-70.61-21.54-86.42-62.26-11.33-47.81,40.44-94.76,13.06-134.83C230.52,614,184.59,447,239.46,319.91,262.54,266.47,301.86,217.77,367.74,184.23Z" />
      <path class="cls-9"
        d="M364.46,179.15c69.93-36,142.5-47.64,215.34-40.76a202.84,202.84,0,0,1,65.73,11.1c11.82,4,23,10,34.75,15.79,31.29,15.34,62.24,32.35,90.61,55.74,27.64,23.21,52.4,47.92,71.25,75.54a381.18,381.18,0,0,1,53.8,108.1c60.12,190.68-35.81,397.76-220.43,487.47-33.08,16.08-64.74,28.62-96.28,37.84-45.9,13.29-92.85,18-145.46,8.83-14.73-2.56-30-5.54-45-8.68-36.27-8.56-70.48-21.81-86.49-62.23-11.51-47.46,39.24-94.09,12-134C227.83,607.16,182.48,441,237.17,314.47,260.18,261.21,299.15,212.75,364.46,179.15Z" />
      <path class="cls-10"
        d="M361.15,173.66c70-36.38,142.63-48.57,215.74-42.08a209.74,209.74,0,0,1,66.55,10.93c12,4,23.37,10,35.23,15.77,31.72,15.39,63,32.64,91.69,56.34,27.54,23.31,52.38,47.95,71.1,75.61A381.85,381.85,0,0,1,895.2,398.32c60.4,191.46-37.34,396.43-222,485.66-33.09,16-64.76,28.5-96.27,37.75C531,935,484.06,939.46,431.54,930.2c-14.72-2.6-30-5.61-45-8.77-36.18-8.74-70.32-22.09-86.55-62.21-11.68-47.1,38-93.43,11-133.12C225.1,599.9,180.33,434.65,234.83,308.62,257.79,255.54,296.41,207.32,361.15,173.66Z" />
      <path class="cls-11"
        d="M357.8,167.82c70-36.79,142.77-49.5,216.14-43.41a217.07,217.07,0,0,1,67.37,10.77c12.17,4,23.72,10,35.71,15.75,32.15,15.44,63.71,32.92,92.79,56.94,27.42,23.41,52.34,48,70.94,75.68a383.12,383.12,0,0,1,53.68,108.07c60.68,192.25-38.88,395.11-223.59,483.86-33.1,15.91-64.79,28.38-96.26,37.65-45.93,13.34-92.88,17.48-145.3,8.12-14.71-2.63-29.94-5.69-44.94-8.87-36.1-8.9-70.19-22.35-86.62-62.18-11.86-46.74,36.83-92.76,10-132.26-85.37-125.65-129.56-290-75.24-415.52C255.36,249.52,293.62,201.53,357.8,167.82Z" />
      <path class="cls-12"
        d="M354.42,161.69c70.1-37.2,142.9-50.43,216.54-44.74a224.28,224.28,0,0,1,68.18,10.61c12.36,3.93,24.06,9.94,36.2,15.72,32.58,15.5,64.45,33.22,93.87,57.54,27.32,23.52,52.32,48,70.79,75.76a384.11,384.11,0,0,1,53.61,108.05c61,193-40.4,393.78-225.15,482.06-33.12,15.82-64.82,28.26-96.26,37.55C526.26,917.61,479.31,921.48,427,912c-14.71-2.66-29.92-5.75-44.91-9-36-9.08-70-22.63-86.68-62.16-12-46.39,35.63-92.1,9-131.41-84.82-125.09-128.43-288.57-74.3-413.56C252.9,243.21,290.81,195.44,354.42,161.69Z" />
      <path class="cls-13"
        d="M351,155.31C421.16,117.71,494,104,568,109.25a231.82,231.82,0,0,1,69,10.45c12.54,3.9,24.41,9.9,36.69,15.69,33,15.55,65.19,33.51,95,58.15,27.21,23.61,52.29,48.05,70.64,75.82a385,385,0,0,1,53.54,108C954,571.21,850.84,769.86,666,857.65c-33.13,15.74-64.82,28.2-96.25,37.45-45.92,13.51-92.9,17-145.13,7.41-14.69-2.7-29.88-5.82-44.86-9-35.92-9.25-69.89-22.9-86.75-62.13-12.21-46,34.42-91.44,7.95-130.55-84.28-124.54-127.31-287.14-73.36-411.61C250.4,236.65,288,189.11,351,155.31Z" />
      <path class="cls-14"
        d="M347.57,148.78c70.2-38,143.16-52.28,217.33-47.38a239.61,239.61,0,0,1,69.82,10.28c12.71,3.86,24.75,9.86,37.17,15.66,33.44,15.6,65.92,33.8,96.05,58.75C795,209.81,820.2,234.18,838.42,262A386.05,386.05,0,0,1,891.9,370c61.53,194.6-43.46,391.13-228.31,478.45-33.13,15.65-64.84,28.08-96.24,37.35-45.93,13.54-92.91,16.75-145,7.05-14.69-2.73-29.86-5.89-44.82-9.13-35.83-9.42-69.75-23.17-86.82-62.1-12.38-45.68,33.22-90.77,6.93-129.7-83.74-124-126.19-285.7-72.43-409.65C247.88,229.94,285.07,182.62,347.57,148.78Z" />
      <path class="cls-15"
        d="M344.1,142.13c70.26-38.43,143.29-53.2,217.73-48.7a247.94,247.94,0,0,1,70.63,10.12c12.9,3.82,25.1,9.83,37.66,15.63,33.87,15.66,66.66,34.09,97.13,59.35,27,23.82,52.24,48.13,70.33,76a387,387,0,0,1,53.42,108c61.81,195.38-45,389.81-229.88,476.64-33.15,15.57-64.87,28-96.24,37.26C519,890,472,892.92,419.92,883.1c-14.67-2.76-29.83-6-44.78-9.22-35.74-9.59-69.6-23.44-86.87-62.07-12.57-45.33,32-90.11,5.9-128.84C211,559.53,169.11,398.7,222.68,275.28,245.33,223.11,282.16,176,344.1,142.13Z" />
      <path class="cls-16"
        d="M340.6,135.44c70.32-38.85,143.43-54.13,218.13-50a256.25,256.25,0,0,1,71.45,10c13.08,3.79,25.44,9.79,38.14,15.61,34.3,15.71,67.4,34.38,98.23,60,26.88,23.92,52.2,48.16,70.17,76a387.61,387.61,0,0,1,53.35,108c62.09,196.16-46.51,388.48-231.45,474.83-33.16,15.49-64.9,27.86-96.24,37.16-45.94,13.62-92.92,16.26-144.86,6.34-14.68-2.8-29.81-6-44.74-9.32-35.66-9.75-69.46-23.71-86.95-62-12.73-45,30.81-89.44,4.89-128-82.66-122.88-123.94-282.82-70.55-405.73C242.75,216.24,279.23,169.35,340.6,135.44Z" />
      <path class="cls-17"
        d="M337.08,128.76c70.37-39.27,143.56-55,218.53-51.35a264.71,264.71,0,0,1,72.26,9.8C641.13,91,653.66,97,666.5,102.79c34.73,15.76,68.14,34.67,99.31,60.55,26.78,24,52.18,48.2,70,76.12a388.65,388.65,0,0,1,53.29,108c62.37,197-48,387.16-233,473-33.18,15.41-64.93,27.75-96.24,37.06-45.94,13.67-92.93,16-144.78,6-14.66-2.84-29.78-6.09-44.69-9.41-35.57-9.92-69.32-24-87-62C270.46,747.47,313,703.31,287.24,665c-82.11-122.32-122.82-281.38-69.61-403.77C240.15,209.38,276.26,162.7,337.08,128.76Z" />
      <path class="cls-18"
        d="M333.54,122.16c70.43-39.69,143.69-56,218.93-52.67a273.61,273.61,0,0,1,73.08,9.63c13.44,3.71,26.12,9.71,39.11,15.55,35.15,15.81,68.88,35,100.4,61.16C791.72,180,817.21,204.06,834.92,232a390,390,0,0,1,53.23,108C950.8,537.7,838.58,725.8,653.55,811.2c-33.19,15.32-64.95,27.63-96.23,37-46,13.71-92.94,15.78-144.69,5.63-14.66-2.87-29.75-6.16-44.66-9.5-35.48-10.09-69.17-24.25-87.07-62C267.81,738,309.3,694.19,283.74,656c-81.57-121.77-121.69-279.94-68.67-401.82C237.52,202.6,273.27,156.12,333.54,122.16Z" />
      <path class="cls-19"
        d="M330,115.69c70.49-40.11,143.83-56.91,219.33-54a282.71,282.71,0,0,1,73.9,9.47c13.62,3.68,26.47,9.67,39.59,15.53,35.59,15.86,69.62,35.25,101.5,61.76,26.55,24.23,52.12,48.26,69.7,76.26a390.68,390.68,0,0,1,53.17,107.94C950.09,531.16,836.05,717.15,651,802.07c-33.2,15.24-65,27.51-96.22,36.86-46,13.75-92.95,15.53-144.61,5.28-14.65-2.91-29.72-6.23-44.61-9.59-35.39-10.26-69-24.52-87.14-62-13.27-43.91,27.19-87.45,1.82-125.42-81-121.22-120.57-278.5-67.74-399.86C234.88,196,270.27,149.67,330,115.69Z" />
      <path class="cls-20"
        d="M326.39,109.42c70.54-40.54,144-57.84,219.73-55.32a292.06,292.06,0,0,1,74.71,9.3C634.63,67,647.65,73,660.91,78.9c36,15.92,70.36,35.55,102.58,62.36,26.45,24.34,52.1,48.3,69.56,76.34a392,392,0,0,1,53.1,107.92c63.2,199.3-52.64,383.18-237.75,467.62-33.22,15.15-65,27.4-96.22,36.76-46,13.79-92.95,15.29-144.53,4.93-14.63-3-29.69-6.3-44.57-9.68-35.3-10.44-68.87-24.8-87.2-61.93-13.44-43.56,26-86.8.8-124.57C196.2,518,157.23,361.58,209.88,240.75,232.22,189.5,267.24,143.42,326.39,109.42Z" />
      <path class="cls-21"
        d="M322.79,103.41c70.6-41,144.1-58.77,220.13-56.65a301.81,301.81,0,0,1,75.53,9.14c14,3.6,27.16,9.6,40.56,15.47,36.45,16,71.1,35.84,103.67,63,26.34,24.43,52.07,48.33,69.4,76.41a392.77,392.77,0,0,1,53,107.9C948.61,518.74,831,700.51,645.8,784.47c-33.23,15.06-65,27.28-96.22,36.66-46,13.83-93,15-144.44,4.57-14.63-3-29.66-6.37-44.53-9.77-35.21-10.61-68.73-25.07-87.26-61.91-13.62-43.2,24.78-86.12-.23-123.71C193.19,510.2,154.8,354.69,207.27,234.37,229.54,183.3,264.19,137.42,322.79,103.41Z" />
      <path class="cls-22"
        d="M319.18,97.71C389.9,56.42,463.41,38,539.71,39.74a311.86,311.86,0,0,1,76.34,9c14.16,3.56,27.5,9.55,41.05,15.44,36.87,16,71.84,36.14,104.76,63.57,26.22,24.54,52,48.37,69.24,76.48a394,394,0,0,1,53,107.89c63.76,200.87-55.69,380.53-240.9,464-33.24,15-65,27.17-96.21,36.57-46,13.87-93,14.79-144.35,4.21-14.62-3-29.64-6.44-44.49-9.86-35.13-10.78-68.59-25.34-87.33-61.88-13.8-42.85,23.58-85.46-1.25-122.85-79.39-119.57-117.2-274.19-64.92-394C226.84,177.42,261.18,131.83,319.18,97.71Z" />
      <path class="cls-23"
        d="M315.56,92.39C386.27,50.57,459.91,31.78,536.48,33.1c25.78,0,51.67,2.55,77.16,8.82,14.34,3.52,27.84,9.51,41.53,15.41C692.47,73.41,727.75,93.76,761,121.5c26.11,24.64,52,48.41,69.09,76.56A394.8,394.8,0,0,1,883,305.93c64,201.65-57.22,379.2-242.47,462.2a807,807,0,0,1-96.2,36.47c-46,13.91-93,14.55-144.27,3.86-14.61-3.05-29.61-6.5-44.45-10-35-11-68.44-25.61-87.4-61.85-14-42.5,22.38-84.8-2.26-122-78.85-119-116.08-272.75-64-392C224.13,171.93,258.06,126.44,315.56,92.39Z" />
      <path class="cls-24"
        d="M311.92,87.52C382.64,45.17,456.41,26,533.24,26.9c26,0,52.22,2.46,78,8.65,14.52,3.49,28.19,9.48,42,15.39C691,67.07,726.55,87.66,760.17,115.71c26,24.75,52,48.44,68.94,76.63A395.91,395.91,0,0,1,882,300.2c64.33,202.44-58.74,377.87-244,460.4A827.93,827.93,0,0,1,541.71,797c-46,13.95-93,14.31-144.18,3.5-14.6-3.08-29.59-6.57-44.41-10-34.95-11.12-68.29-25.88-87.46-61.82-14.14-42.14,21.18-84.14-3.29-121.15-78.3-118.46-115-271.31-63-390.07C221.42,166.87,254.93,121.49,311.92,87.52Z" />
      <path class="cls-25"
        d="M308.27,83.14C379.09,40.42,452.9,20.67,530,21.2c26.32,0,52.77,2.38,78.79,8.49,14.71,3.45,28.54,9.44,42.51,15.36,38.16,16.18,74.05,37,108,65.38,25.9,24.84,52,48.47,68.78,76.7A396.89,396.89,0,0,1,880.88,295c64.6,203.22-60.28,376.55-245.62,458.59a847.45,847.45,0,0,1-96.19,36.27c-46,14-93,14.07-144.1,3.15-14.6-3.11-29.56-6.64-44.36-10.13-34.87-11.29-68.16-26.15-87.53-61.79-14.32-41.79,20-83.47-4.31-120.29C181,482.86,144.94,330.89,196.67,212.66,218.69,162.31,251.86,117.17,308.27,83.14Z" />
      <path class="cls-26"
        d="M304.62,79.33c70.87-43.16,144.76-63.39,222.12-63.26,26.59,0,53.31,2.29,79.61,8.32,14.88,3.42,28.87,9.4,43,15.34,38.58,16.22,74.79,37.3,109.11,66,25.79,24.94,51.93,48.5,68.62,76.77C851,216.68,868,253.27,879.8,290.3c64.87,204-61.81,375.22-247.2,456.79a865.83,865.83,0,0,1-96.19,36.17c-46,14-93,13.82-144,2.8-14.58-3.15-29.53-6.71-44.32-10.23-34.78-11.45-68-26.42-87.59-61.76-14.5-41.43,18.76-82.81-5.34-119.44C177.94,477.28,142.45,326.2,194,208.48,216,158.32,248.75,113.36,304.62,79.33Z" />
      <path class="cls-27"
        d="M301,76.14c70.92-43.61,144.89-64.32,222.52-64.58,26.86,0,53.85,2.2,80.42,8.16C619,23.09,633.12,29.08,647.38,35a423.37,423.37,0,0,1,110.2,66.57c25.68,25.05,51.9,48.55,68.47,76.85,23.88,34.23,40.89,70.82,52.66,107.81,65.15,204.79-63.34,373.89-248.77,455a893,893,0,0,1-96.18,36.08c-46,14.07-93,13.57-143.93,2.44-14.58-3.19-29.5-6.78-44.28-10.32-34.69-11.62-67.86-26.69-87.66-61.74-14.67-41.07,17.57-82.14-6.35-118.58-76.67-116.8-111.58-267-60.23-384.19C213.21,155,245.64,110.16,301,76.14Z" />
      <path class="cls-28"
        d="M297.3,73.63c71-44.06,145-65.25,222.92-65.91,27.13,0,54.39,2.12,81.23,8C616.69,19.06,631,25,645.42,31A423.19,423.19,0,0,1,756.71,98.18c25.56,25.15,51.87,48.58,68.31,76.92,23.87,34.26,40.84,70.85,52.6,107.79,65.43,205.58-64.87,372.57-250.35,453.18a914.15,914.15,0,0,1-96.17,36c-46,14.11-93,13.33-143.85,2.08-14.56-3.22-29.47-6.84-44.23-10.41-34.6-11.79-67.72-27-87.73-61.7-14.84-40.73,16.36-81.48-7.37-117.73C171.8,468.05,137.47,318.74,188.63,202.06,210.47,152.26,242.52,107.64,297.3,73.63Z" />
      <path class="cls-29"
        d="M293.63,71.86C364.66,27.35,438.79,5.69,517,4.63c27.4,0,54.94,2,82.06,7.83,15.42,3.3,29.9,9.29,44.44,15.26A422.68,422.68,0,0,1,755.83,95.5c25.46,25.25,51.85,48.61,68.16,77,23.85,34.29,40.78,70.88,52.53,107.78,65.71,206.36-66.39,371.24-251.91,451.37a939.05,939.05,0,0,1-96.18,35.88c-46,14.16-93,13.08-143.76,1.73-14.55-3.26-29.44-6.92-44.19-10.5-34.51-12-67.57-27.23-87.79-61.68-15-40.37,15.16-80.82-8.39-116.87C168.72,464.51,135,316.08,186,199.92,207.72,150.31,239.39,105.85,293.63,71.86Z" />
      <path class="cls-30"
        d="M290,70.89c71.08-45,145.29-67.1,223.72-68.55,27.67,0,55.48,1.94,82.87,7.67,15.6,3.26,30.24,9.24,44.93,15.23A422.88,422.88,0,0,1,755,93.62c25.34,25.36,51.81,48.65,68,77.06,23.83,34.32,40.73,70.92,52.47,107.77,66,207.14-67.92,369.91-253.49,449.56a965.09,965.09,0,0,1-96.17,35.78c-46,14.2-93,12.84-143.67,1.38-14.55-3.29-29.42-7-44.15-10.59-34.43-12.14-67.43-27.51-87.86-61.66-15.2-40,14-80.15-9.42-116-75-115.14-108.2-262.68-57.4-378.32C205,149.16,236.27,104.86,290,70.89Z" />
      <path class="cls-31"
        d="M286.31,70.79C357.44,25.36,431.73,2.76,510.42.91c27.95,0,56,1.86,83.69,7.5,15.78,3.22,30.59,9.21,45.42,15.2a422.94,422.94,0,0,1,114.55,69c25.24,25.46,51.79,48.69,67.85,77.14,23.82,34.34,40.68,70.94,52.41,107.74,66.26,207.94-69.45,368.59-255.07,447.77a995.31,995.31,0,0,1-96.16,35.68c-46,14.24-93,12.59-143.59,1-14.54-3.33-29.39-7.05-44.11-10.68-34.33-12.31-67.28-27.78-87.92-61.63-15.37-39.66,12.75-79.49-10.44-115.16C162.57,459.9,130,313.25,180.59,198.12,202.24,148.87,233.14,104.73,286.31,70.79Z" />
      <path class="cls-32"
        d="M282.65,71.6C353.83,25.72,428.21,2.65,507.16.4c28.22,0,56.58,1.78,84.51,7.34,16,3.19,30.93,9.17,45.9,15.18A422.48,422.48,0,0,1,753.21,92.51c25.13,25.56,51.77,48.72,67.7,77.2,23.8,34.38,40.62,71,52.34,107.74,66.54,208.72-71,367.25-256.64,446-33.36,14.14-65.3,26-96.15,35.59-46.05,14.28-93,12.34-143.51.66-14.53-3.36-29.36-7.12-44.06-10.77-34.26-12.47-67.14-28-88-61.6C229.35,648,256.45,608.46,233.44,573c-73.94-114-105.95-259.8-55.53-374.4C199.5,149.51,230,105.53,282.65,71.6Z" />
      <path class="cls-33"
        d="M278.08,73.06C349.3,26.72,423.76,3.18,503,.54c28.48,0,57.11,1.69,85.32,7.18,16.13,3.14,31.27,9.12,46.38,15.14,41.58,16.57,80,39.34,116.74,70.2,25,25.66,51.73,48.75,67.54,77.28,23.78,34.4,40.57,71,52.27,107.71C938.06,487.56,798.74,644,613,722.2c-33.38,14.06-65.33,25.9-96.16,35.49-46.05,14.32-93,12.1-143.42.31-14.52-3.4-29.33-7.19-44-10.86-34.16-12.65-67-28.32-88.05-61.57-15.73-39,10.34-78.16-12.48-113.45-73.4-113.48-104.83-258.36-54.6-372.45C195.84,150.79,226,107,278.08,73.06Z" />
      <path class="cls-34"
        d="M270,73.93C341.27,27.12,415.82,3.12,495.31.08c28.76,0,57.66,1.6,86.14,7,16.31,3.1,31.62,9.08,46.87,15.12C670.32,38.83,709,61.85,746.14,93c24.91,25.77,51.71,48.79,67.39,77.35,23.76,34.44,40.51,71,52.21,107.7,67.09,210.29-74,364.6-259.78,442.35-33.39,14-65.35,25.78-96.15,35.39-46.06,14.36-93.05,11.85-143.34,0-14.5-3.43-29.3-7.26-44-11-34.07-12.82-66.85-28.59-88.11-61.55-15.91-38.59,9.14-77.49-13.51-112.59C148,457.74,117.17,313.74,167.22,200.18,188.68,151.47,218.44,107.79,270,73.93Z" />
      <path class="cls-35"
        d="M261.94,75.26C333.26,28,407.89,3.53,487.65.09c29,0,58.2,1.52,87,6.86C591.09,10,606.56,16,622,22,664.38,38.7,703.39,62,740.86,93.43c24.81,25.87,51.68,48.83,67.24,77.43,23.74,34.46,40.46,71.06,52.15,107.68,67.36,211.08-75.56,363.28-261.36,440.54q-50.1,20.83-96.14,35.29C456.68,768.78,409.69,766,359.5,754c-14.5-3.46-29.28-7.32-43.94-11-34-13-66.71-28.86-88.18-61.52-16.08-38.24,7.93-76.82-14.53-111.73C140.55,457.3,110.27,314.2,160.14,201.15,181.54,152.63,210.91,109.09,261.94,75.26Z" />
      <path class="cls-36"
        d="M253.89,77.06C325.26,29.3,400,4.4,480,.56c29.3,0,58.75,1.43,87.77,6.69,16.67,3,32.3,9,47.84,15.07,42.86,16.71,82.18,40.21,120,72,24.69,26,51.65,48.86,67.07,77.5,23.73,34.5,40.42,71.1,52.09,107.67,67.64,211.87-77.08,361.95-262.93,438.74q-50.12,20.7-96.14,35.19c-46.07,14.44-93.06,11.36-143.16-.76-14.49-3.5-29.25-7.39-43.9-11.13-33.9-13.15-66.56-29.13-88.25-61.49-16.25-37.89,6.74-76.16-15.54-110.88-71.76-111.82-101.46-254-51.78-366.57C174.41,154.24,203.39,110.85,253.89,77.06Z" />
      <path class="cls-37"
        d="M245.87,79.29C317.28,31.06,392.09,5.7,472.38,1.47,502,1.47,531.67,2.81,561,8c16.85,3,32.64,9,48.32,15,43.29,16.76,82.92,40.51,121.09,72.6C755,121.71,782,144.53,797.3,173.2c23.71,34.53,40.36,71.13,52,107.65,67.92,212.66-78.61,360.63-264.5,436.94q-50.15,20.58-96.13,35.09c-46.08,14.48-93.07,11.12-143.08-1.11-14.48-3.54-29.22-7.46-43.86-11.23-33.81-13.32-66.41-29.4-88.31-61.46-16.43-37.53,5.53-75.5-16.57-110C125.66,457.79,96.54,316.46,146,204.44,167.31,156.29,195.9,113,245.87,79.29Z" />
      <path class="cls-38"
        d="M237.89,81.94C309.34,33.23,384.25,7.42,464.8,2.79c29.84,0,59.83,1.26,89.4,6.37,17,2.94,33,8.92,48.81,15C646.72,41,686.67,65,725.19,97.37,749.66,123.55,776.78,146.3,792,175c23.69,34.56,40.3,71.16,51.95,107.64,68.19,213.44-80.13,359.29-266.07,435.13q-50.16,20.44-96.13,35c-46.09,14.53-93.07,10.87-143-1.46-14.47-3.58-29.19-7.53-43.81-11.32-33.72-13.49-66.27-29.67-88.38-61.43-16.6-37.18,4.33-74.84-17.59-109.17C118.27,458.67,89.73,318.22,139,206.73,160.25,158.76,188.45,115.64,237.89,81.94Z" />
      <path class="cls-39"
        d="M230,85C301.45,35.8,376.45,9.55,457.27,4.52c30.11,0,60.37,1.17,90.21,6.2,17.21,2.91,33.33,8.89,49.3,15C640.91,42.57,681.17,66.8,720,99.51c24.37,26.28,51.57,49,66.61,77.72,23.68,34.58,40.26,71.18,51.9,107.62,68.46,214.23-81.67,358-267.65,433.32q-50.17,20.33-96.13,34.9c-46.09,14.56-93.07,10.62-142.9-1.82-14.47-3.61-29.17-7.6-43.77-11.41-33.64-13.66-66.13-29.94-88.45-61.41-16.78-36.82,3.12-74.17-18.61-108.31C110.93,460,83,320.4,132.08,209.42,153.24,161.63,181,118.65,230,85Z" />
      <path class="cls-40"
        d="M222.08,88.43C293.61,38.76,368.7,12.06,449.78,6.64c30.39,0,60.92,1.08,91,6,17.38,2.86,33.67,8.84,49.78,15C635.16,44.54,675.73,69,715,102c24.25,26.38,51.54,49,66.46,77.79,23.65,34.61,40.2,71.21,51.83,107.6C902,502.45,750,644.07,564,719q-50.19,20.2-96.12,34.8c-46.09,14.61-93.08,10.38-142.82-2.18-14.45-3.64-29.14-7.66-43.73-11.5-33.55-13.83-66-30.21-88.51-61.37-17-36.47,1.92-73.51-19.63-107.46C103.63,461.63,76.25,323,125.18,212.5,146.27,164.89,173.68,122,222.08,88.43Z" />
      <path class="cls-41"
        d="M214.26,92.24C285.83,42.08,361,15,442.36,9.12c30.66,0,61.46,1,91.85,5.88,17.57,2.82,34,8.81,50.27,14.93,45,17,85.87,41.67,125.44,75,24.14,26.48,51.51,49,66.3,77.86C799.86,217.44,816.37,254,828,290.39c69,215.8-84.72,355.31-270.8,429.71Q507,740.17,461.08,754.8C415,769.45,368,764.93,318.34,752.27c-14.44-3.68-29.11-7.74-43.69-11.59-33.46-14-65.83-30.48-88.57-61.35-17.13-36.11.72-72.84-20.65-106.61-69-109-95.83-246.84-47.09-356.77C139.37,168.51,166.38,125.8,214.26,92.24Z" />
      <path class="cls-42"
        d="M206.51,96.4C278.11,45.74,353.4,18.18,435,12c30.92,0,62,.91,92.66,5.71,17.74,2.79,34.36,8.77,50.75,14.91,45.42,17,86.61,42,126.53,75.61,24,26.58,51.49,49.07,66.15,77.93,23.62,34.67,40.09,71.27,51.71,107.57,69.27,216.59-86.25,354-272.38,427.91q-50.24,19.95-96.11,34.6c-46.11,14.69-93.09,9.89-142.65-2.88-14.43-3.72-29.08-7.81-43.65-11.68-33.37-14.18-65.68-30.76-88.63-61.33-17.31-35.76-.49-72.17-21.68-105.75C89.25,466.07,63,329.16,111.58,219.74,132.55,172.49,159.15,129.9,206.51,96.4Z" />
      <path class="cls-43"
        d="M198.85,100.89c71.63-51.15,147-79.14,228.9-85.76,31.19,0,62.54.82,93.48,5.55,17.92,2.74,34.7,8.73,51.23,14.88,45.85,17,87.35,42.25,127.62,76.21,23.93,26.69,51.46,49.1,66,78,23.6,34.7,40,71.3,51.64,107.55,69.55,217.38-87.78,352.66-274,426.1q-50.25,19.83-96.1,34.51c-46.12,14.73-93.1,9.64-142.57-3.24-14.42-3.75-29.06-7.87-43.6-11.77-33.29-14.34-65.55-31-88.71-61.3-17.48-35.4-1.69-71.51-22.69-104.89-67.93-107.95-93.58-244-45.21-352.86C125.8,176.81,152,134.34,198.85,100.89Z" />
      <path class="cls-44"
        d="M191.27,105.71c71.66-51.65,147.15-80.07,229.3-87.09,31.47,0,63.08.73,94.29,5.39,18.11,2.7,35,8.69,51.72,14.85C612.85,56,654.67,81.4,695.29,115.67c23.82,26.79,51.43,49.14,65.84,78.08,23.59,34.73,40,71.33,51.58,107.54,69.82,218.17-89.3,351.33-275.52,424.3q-50.27,19.7-96.1,34.4c-46.12,14.78-93.1,9.4-142.48-3.59-14.41-3.79-29-7.94-43.56-11.86-33.2-14.52-65.4-31.3-88.77-61.27-17.66-35-2.89-70.85-23.72-104C75.18,471.84,50.11,336.7,98.29,228.33,119.14,181.44,144.94,139.09,191.27,105.71Z" />
      <path class="cls-45"
        d="M183.79,110.82c71.69-52.15,147.28-81,229.7-88.41,31.73,0,63.62.64,95.11,5.22,18.28,2.66,35.38,8.65,52.2,14.83,46.7,17.14,88.83,42.83,129.8,77.41,23.71,26.9,51.4,49.18,65.69,78.16,23.57,34.75,39.93,71.35,51.51,107.52,70.09,219-90.83,350-277.1,422.49q-50.28,19.58-96.09,34.31c-46.13,14.82-93.1,9.15-142.4-4-14.4-3.83-29-8-43.51-12-33.12-14.68-65.26-31.56-88.84-61.23C142,650.51,155.76,615,135.12,582,68.29,475.18,43.8,340.94,91.79,233.08,112.58,186.37,138,144.14,183.79,110.82Z" />
      <path class="cls-46"
        d="M176.41,116.22c71.72-52.66,147.42-81.93,230.1-89.74,32,0,64.17.56,95.93,5.06,18.46,2.62,35.72,8.61,52.69,14.8,47.12,17.18,89.56,43.13,130.89,78,23.59,27,51.37,49.21,65.52,78.22C775.1,237.37,791.43,274,803,310.09c70.36,219.74-92.36,348.67-278.67,420.69-33.54,13-65.65,24.4-96.09,34.21-46.14,14.85-93.11,8.9-142.31-4.31-14.4-3.86-29-8.08-43.48-12-33-14.85-65.11-31.84-88.9-61.21-18-34.35-5.3-69.52-25.76-102.33-66.28-106.29-90.2-239.65-42.39-347C106.12,191.59,131.12,149.47,176.41,116.22Z" />
      <path class="cls-47"
        d="M169.15,121.88C240.9,68.71,316.7,39,399.65,30.82c32.28,0,64.7.47,96.74,4.9,18.64,2.58,36.07,8.57,53.18,14.77,47.54,17.23,90.3,43.42,132,78.62,23.49,27.1,51.35,49.24,65.38,78.3,23.53,34.81,39.83,71.41,51.39,107.49,70.63,220.53-93.89,347.34-280.25,418.88-33.55,12.88-65.67,24.29-96.08,34.11-46.14,14.9-93.11,8.65-142.23-4.66-14.38-3.9-28.94-8.15-43.43-12.14-32.94-15-65-32.1-89-61.18-18.18-34-6.5-68.85-26.78-101.47-65.73-105.73-89.07-238.21-41.45-345C99.78,197.07,124.37,155.06,169.15,121.88Z" />
      <path class="cls-48"
        d="M162,127.79C233.79,74.11,309.7,44,392.91,35.41c32.55,0,65.25.38,97.56,4.73,18.82,2.54,36.41,8.53,53.66,14.74,48,17.28,91,43.71,133.07,79.23,23.37,27.2,51.31,49.27,65.22,78.37,23.51,34.84,39.78,71.44,51.32,107.47C864.65,541.27,698.33,666,511.92,737c-33.56,12.79-65.7,24.18-96.08,34-46.14,14.94-93.11,8.41-142.14-5-14.37-3.94-28.92-8.22-43.39-12.23-32.85-15.19-64.82-32.38-89-61.15-18.36-33.64-7.7-68.19-27.8-100.62C48.29,486.85,25.53,355.26,73,249,93.56,202.8,117.74,160.9,162,127.79Z" />
      <path class="cls-49"
        d="M155,133.93c71.79-54.2,147.82-84.7,231.3-93.7,32.82,0,65.78.28,98.37,4.57,19,2.49,36.75,8.48,54.15,14.71,48.39,17.33,91.78,44,134.15,79.83,23.27,27.3,51.29,49.31,65.06,78.44,23.51,34.88,39.74,71.48,51.27,107.46,71.17,222.11-96.94,344.68-283.4,415.27-33.57,12.71-65.72,24.06-96.07,33.92-46.15,15-93.11,8.16-142.06-5.37-14.36-4-28.89-8.29-43.35-12.32-32.76-15.36-64.67-32.65-89.09-61.13-18.54-33.28-8.91-67.52-28.83-99.76C41.88,491.23,19.69,360.52,66.94,254.73,87.47,208.76,111.24,167,155,133.93Z" />
      <path class="cls-50"
        d="M148.15,140.29c71.8-54.72,148-85.63,231.69-95,33.09,0,66.33.2,99.19,4.41,19.17,2.45,37.09,8.44,54.63,14.68,48.83,17.37,92.52,44.3,135.24,80.43,23.16,27.41,51.27,49.35,64.91,78.52,23.49,34.9,39.68,71.5,51.2,107.44,71.45,222.9-98.46,343.36-285,413.46-33.59,12.63-65.75,24-96.07,33.82-46.16,15-93.12,7.92-142-5.72-14.35-4-28.87-8.35-43.31-12.41C186,744.36,154.17,727,129.54,698.79c-18.71-32.92-10.11-66.86-29.85-98.91C35.6,495.82,14,366,61.06,260.73,81.53,214.93,104.89,173.25,148.15,140.29Z" />
      <path class="cls-51"
        d="M141.43,146.84C213.25,91.6,289.51,60.28,373.52,50.49c33.37,0,66.87.11,100,4.24,19.35,2.42,37.44,8.41,55.12,14.66C577.9,86.81,621.91,114,665,150.42c23,27.51,51.23,49.39,64.75,78.59,23.47,34.94,39.63,71.54,51.14,107.43,71.71,223.68-100,342-286.54,411.66-33.6,12.54-65.78,23.83-96.06,33.72-46.17,15.07-93.12,7.67-141.89-6.08-14.34-4-28.84-8.42-43.27-12.5-32.58-15.7-64.38-33.19-89.22-61.07C105,669.6,112.57,636,93,604.11,29.48,500.6,8.45,371.67,55.32,266.92,75.73,221.3,98.68,179.73,141.43,146.84Z" />
      <path class="cls-52"
        d="M135.05,153.49C206.88,97.72,283.26,66,367.54,55.82c33.63,0,67.4,0,100.82,4.08,19.53,2.37,37.77,8.36,55.6,14.63,49.67,17.46,94,44.88,137.42,81.63,22.94,27.62,51.21,49.42,64.6,78.66,23.45,35,39.58,71.57,51.07,107.41,72,224.48-101.52,340.7-288.11,409.86-33.61,12.46-65.8,23.72-96.06,33.62-46.17,15.11-93.12,7.42-141.8-6.43-14.33-4.08-28.81-8.49-43.23-12.59-32.49-15.87-64.24-33.47-89.29-61.05-19.06-32.21-12.51-65.53-31.89-97.2-63-103-83.44-231-36.75-335.23C70.26,227.77,92.79,186.3,135.05,153.49Z" />
      <path class="cls-53"
        d="M131.78,158.69c71.84-56.3,148.35-88.41,232.89-99,33.91,0,67.95-.06,101.64,3.92,19.71,2.33,38.12,8.33,56.09,14.61,50.1,17.51,94.73,45.16,138.5,82.23,22.83,27.72,51.18,49.45,64.45,78.73,23.43,35,39.52,71.6,51,107.4C848.61,571.84,673.31,686,486.67,754.63c-33.62,12.37-65.82,23.61-96.05,33.52-46.18,15.15-93.13,7.18-141.72-6.79-14.32-4.11-28.78-8.55-43.18-12.68-32.41-16-64.1-33.73-89.36-61-19.24-31.87-13.72-64.87-32.91-96.35C21,508.92,1.14,381.75,47.63,278,67.92,232.79,90,191.41,131.78,158.69Z" />
      <path class="cls-54"
        d="M130,163.09c71.84-56.84,148.48-89.34,233.29-100.32,34.17,0,68.49-.16,102.45,3.75,19.88,2.29,38.46,8.29,56.57,14.58,50.53,17.55,95.47,45.46,139.6,82.84,22.72,27.81,51.15,49.48,64.29,78.8,23.41,35,39.47,71.63,50.94,107.38,72.52,226-104.57,338-291.26,406.25-33.63,12.28-65.85,23.49-96.05,33.42-46.18,15.2-93.12,6.93-141.63-7.14-14.31-4.15-28.75-8.63-43.14-12.78-32.32-16.21-63.95-34-89.42-61-19.41-31.51-14.92-64.2-33.93-95.49C19.82,511.55.52,385.27,46.83,282.08,67.05,237,88.74,195.72,130,163.09Z" />
      <path class="cls-55"
        d="M129.58,166.76C201.43,109.38,278.19,76.5,363.27,65.11c34.44,0,69-.24,103.27,3.59C486.6,71,505.34,77,523.6,83.26c50.95,17.6,96.21,45.75,140.68,83.43,22.61,27.92,51.12,49.53,64.14,78.88,23.39,35.06,39.42,71.66,50.88,107.36,72.79,226.85-106.1,336.72-292.84,404.45-33.65,12.2-65.87,23.37-96,33.32-46.19,15.24-93.13,6.68-141.55-7.49-14.3-4.19-28.72-8.7-43.1-12.87-32.23-16.38-63.8-34.27-89.48-61-19.59-31.15-16.12-63.53-35-94.63C20,513.45,1.27,388.06,47.39,285.38,67.56,240.49,88.82,199.31,129.58,166.76Z" />
      <path class="cls-56"
        d="M130.42,169.77c71.84-57.92,148.74-91.18,234.08-103,34.72,0,69.57-.34,104.09,3.43,20.24,2.2,39.14,8.2,57.54,14.52,51.38,17.65,97,46,141.78,84,22.5,28,51.09,49.56,64,78.95,23.38,35.08,39.37,71.68,50.81,107.35,73.06,227.63-107.62,335.38-294.41,402.63-33.65,12.12-65.89,23.27-96,33.23-46.2,15.28-93.13,6.44-141.46-7.85-14.29-4.22-28.7-8.76-43.06-13-32.15-16.55-63.66-34.54-89.55-60.93-19.77-30.8-17.33-62.87-36-93.78C21.43,514.7,3.28,390.2,49.21,288,69.31,243.33,90.15,202.23,130.42,169.77Z" />
      <path class="cls-57"
        d="M132.4,172.21C204.24,113.74,281.28,80.1,366.88,67.92c35,0,70.11-.42,104.91,3.27,20.41,2.16,39.48,8.16,58,14.49,51.8,17.7,97.69,46.34,142.86,84.65,22.4,28.12,51.07,49.59,63.83,79,23.36,35.11,39.32,71.71,50.75,107.33,73.33,228.43-109.14,334.05-296,400.83-33.67,12-65.92,23.15-96,33.13-46.2,15.32-93.13,6.19-141.37-8.2-14.28-4.27-28.67-8.84-43-13.05-32.06-16.72-63.51-34.82-89.62-60.91-19.94-30.44-18.52-62.2-37-92.92C24,515.37,6.43,391.75,52.17,290.11,72.21,245.59,92.63,204.58,132.4,172.21Z" />
      <path class="cls-58"
        d="M135.41,174.15c71.83-59,149-93,234.88-105.62,35.26,0,70.65-.51,105.73,3.11,20.59,2.12,39.82,8.12,58.5,14.47,52.23,17.73,98.43,46.62,144,85.24,22.29,28.23,51,49.63,63.68,79.1,23.34,35.14,39.27,71.74,50.69,107.31,73.59,229.22-110.68,332.72-297.56,399-33.68,12-65.95,23-96,33-46.2,15.36-93.13,5.94-141.29-8.56-14.27-4.3-28.64-8.9-43-13.14-32-16.89-63.37-35.09-89.68-60.88-20.12-30.09-19.73-61.54-38-92.06C27.6,515.54,10.61,392.81,56.16,291.68,76.14,247.34,96.13,206.42,135.41,174.15Z" />
      <path class="cls-59"
        d="M139.34,175.65c71.82-59.58,149.14-94,235.28-106.93,35.53,0,71.19-.61,106.54,2.93,20.77,2.08,40.16,8.09,59,14.45,52.66,17.78,99.17,46.91,145,85.84,22.18,28.33,51,49.67,63.52,79.17,23.33,35.17,39.22,71.77,50.63,107.3,73.86,230-112.2,331.4-299.13,397.22-33.7,11.87-66,22.92-96,32.94C358,804,311.05,794.26,263,779.65c-14.26-4.33-28.61-9-42.93-13.23-31.89-17.06-63.22-35.36-89.75-60.85-20.29-29.73-20.93-60.87-39-91.21C32.13,515.28,15.71,393.43,61.07,292.83,81,248.66,100.55,207.83,139.34,175.65Z" />
      <path class="cls-60"
        d="M144.08,176.8c71.8-60.14,149.28-94.89,235.68-108.26,35.8,0,71.73-.69,107.36,2.78,20.94,2,40.5,8,59.48,14.41,53.07,17.83,99.9,47.21,146.12,86.45,22.07,28.43,51,49.7,63.37,79.24,23.3,35.2,39.16,71.8,50.56,107.28,74.12,230.8-113.86,329.7-300.71,395.42-33.73,11.71-66,22.81-96,32.84-46.22,15.45-93.14,5.44-141.12-9.28-14.25-4.37-28.59-9-42.89-13.32-31.8-17.22-63.08-35.62-89.81-60.82C115.64,674.16,114,643.34,96,613.19,37.46,514.66,21.62,393.7,66.8,293.61,86.65,249.63,105.78,208.88,144.08,176.8Z" />
      <path class="cls-61"
        d="M149.51,177.67C221.29,117,298.92,81.85,385.59,68.09c36.07,0,72.27-.79,108.17,2.61,21.12,2,40.85,8,60,14.39,53.5,17.87,100.64,47.49,147.21,87,22,28.53,51,49.73,63.21,79.31,23.29,35.23,39.12,71.83,50.5,107.27C889,590.3,699.28,687.11,512.37,752.33c-33.74,11.63-66,22.69-96,32.74-46.23,15.49-93.14,5.19-141-9.63-14.23-4.41-28.55-9.11-42.84-13.41-31.71-17.4-62.94-35.9-89.88-60.8-20.65-29-23.34-59.54-41.08-89.5-58-98-73.3-218-28.31-317.61C93,250.32,111.7,209.65,149.51,177.67Z" />
      <path class="cls-62"
        d="M155.53,178.33C227.28,117.05,305.07,81.58,392,67.42c36.35,0,72.81-.87,109,2.45,21.3,2,41.19,8,60.45,14.36,53.92,17.92,101.38,47.79,148.3,87.66,21.85,28.63,50.93,49.76,63.06,79.38,23.27,35.26,39.06,71.86,50.43,107.25C897.89,590.9,706.34,685.6,519.38,750.33c-33.75,11.55-66,22.57-96,32.64-46.23,15.53-93.13,4.95-140.95-10-14.22-4.45-28.53-9.18-42.8-13.5-31.62-17.57-62.79-36.18-89.94-60.77-20.83-28.67-24.54-58.88-42.11-88.65C50.09,512.66,35.4,393.46,80.2,294.42,99.93,250.8,118.19,210.21,155.53,178.33Z" />
      <path class="cls-63"
        d="M162,178.86C233.73,117,311.68,81.18,398.89,66.63c36.61,0,73.34-1,109.8,2.28,21.48,1.91,41.52,7.92,60.93,14.34,54.35,18,102.12,48.08,149.4,88.25,21.73,28.74,50.9,49.8,62.89,79.46,23.26,35.29,39,71.89,50.38,107.23C907.21,591.36,713.88,684,526.86,748.2c-33.76,11.47-66.07,22.46-96,32.54-46.24,15.57-93.14,4.7-140.87-10.34-14.21-4.48-28.5-9.24-42.76-13.59-31.53-17.74-62.64-36.44-90-60.74-21-28.32-25.74-58.21-43.12-87.79-56.93-96.86-71-215.17-26.44-313.7C107.33,251.14,125.16,210.63,162,178.86Z" />
      <path class="cls-64"
        d="M168.85,179.33c71.69-62.43,149.81-98.6,237.28-113.56,36.88,0,73.88-1,110.62,2.12,21.65,1.87,41.86,7.88,61.41,14.31,54.78,18,102.86,48.37,150.49,88.86,21.62,28.84,50.87,49.84,62.74,79.53,23.24,35.32,39,71.92,50.31,107.22,75.19,234-119.93,324.46-307,388.19-33.77,11.4-66.1,22.35-96,32.45-46.24,15.62-93.13,4.45-140.78-10.69-14.2-4.52-28.47-9.31-42.72-13.69-31.44-17.91-62.5-36.71-90.07-60.71-21.17-28-26.94-57.54-44.15-86.93C64.6,510.12,51.06,392.7,95.49,294.69,115.09,251.43,132.48,211,168.85,179.33Z" />
      <path class="cls-65"
        d="M175.94,179.81c71.65-63,149.94-99.53,237.67-114.88,37.16,0,74.43-1.14,111.44,2,21.83,1.83,42.2,7.84,61.9,14.28,55.2,18,103.6,48.66,151.57,89.46,21.52,29,50.85,49.87,62.59,79.61,23.22,35.34,38.91,71.94,50.25,107.2,75.45,234.75-121.45,323.15-308.58,386.39-33.78,11.31-66.12,22.23-96,32.35-46.25,15.66-93.13,4.2-140.69-11-14.2-4.56-28.45-9.38-42.68-13.78-31.36-18.08-62.36-37-90.14-60.68-21.35-27.61-28.14-56.88-45.17-86.08C72.29,508.84,59.32,392.3,103.56,294.81,123.1,251.73,140.05,211.37,175.94,179.81Z" />
      <path class="cls-66"
        d="M183.16,180.38c71.6-63.6,150.07-100.45,238.07-116.2,37.43,0,75-1.23,112.25,1.8,22,1.78,42.55,7.79,62.39,14.25,55.63,18.1,104.34,49,152.66,90.06C769.94,199.34,799.35,220.2,811,250c23.2,35.38,38.86,72,50.18,107.18C936.87,592.7,738.19,679,551,741.74,517.21,753,484.86,763.86,455,774c-46.25,15.7-93.13,4-140.6-11.4-14.19-4.59-28.43-9.45-42.64-13.87-31.27-18.25-62.21-37.25-90.21-60.65-21.52-27.26-29.34-56.22-46.19-85.23C80.1,507.65,67.71,392,111.76,295,131.24,252.12,147.75,211.84,183.16,180.38Z" />
      <path class="cls-67"
        d="M190.4,181.12C262,116.92,340.61,79.74,428.87,63.59c37.7,0,75.51-1.32,113.07,1.64C564.13,67,584.83,73,604.82,79.45c56,18.14,105.07,49.25,153.74,90.67,21.3,29.15,50.79,49.94,62.28,79.75C844,285.27,859.65,321.87,871,357c76,236.34-124.48,320.55-311.72,382.79-33.8,11.14-66.17,22-96,32.15-46.26,15.74-93.13,3.71-140.52-11.76-14.18-4.63-28.4-9.52-42.6-14-31.18-18.42-62.06-37.52-90.27-60.62-21.7-26.9-30.55-55.55-47.21-84.37C87.94,506.62,76.12,391.85,120,295.39,139.4,252.67,155.46,212.46,190.4,181.12Z" />
      <path class="cls-68"
        d="M197.56,182.09C269.05,117.3,347.9,79.79,436.43,63.24c38,0,76-1.41,113.88,1.47,22.36,1.7,43.23,7.72,63.36,14.2,56.47,18.19,105.81,49.54,154.84,91.27,21.19,29.25,50.76,50,62.12,79.82,23.17,35.44,38.76,72,50.06,107.15,76.24,237.13-126,319.24-313.3,381-33.82,11.07-66.19,21.89-96,32C425.15,786,378.28,773.65,331,758.07c-14.17-4.66-28.37-9.58-42.56-14.05-31.09-18.59-61.92-37.79-90.33-60.6-21.88-26.54-31.75-54.88-48.24-83.51-54.16-94.08-65.4-208-21.73-303.91C147.48,253.47,163.09,213.33,197.56,182.09Z" />
      <path class="cls-69"
        d="M204.51,183.38C275.94,118,355,80.14,443.78,63.2c38.24,0,76.57-1.5,114.7,1.31,22.54,1.66,43.57,7.68,63.84,14.17,56.9,18.23,106.55,49.83,155.93,91.87,21.08,29.36,50.73,50,62,79.9,23.15,35.46,38.71,72.05,50,107.13C966.72,595.5,762.69,675.51,575.34,736.75c-33.83,11-66.22,21.78-96,32-46.27,15.83-93.14,3.22-140.36-12.47-14.15-4.7-28.33-9.65-42.51-14.14-31-18.75-61.77-38.06-90.4-60.57-22-26.19-32.95-54.21-49.25-82.66-53.61-93.52-64.28-206.53-20.8-301.95C155.35,254.57,170.51,214.5,204.51,183.38Z" />
      <path class="cls-70"
        d="M211.14,185.05c71.37-66,150.61-104.16,239.67-121.5,38.51,0,77.12-1.59,115.52,1.14,22.71,1.62,43.91,7.64,64.33,14.15C688,97.12,738,129,787.67,171.31c21,29.46,50.71,50.05,61.82,80,23.13,35.49,38.66,72.09,49.92,107.12C976.19,597.11,770.38,675,583,735.76c-33.84,10.91-66.24,21.67-96,31.86-46.27,15.88-93.13,3-140.26-12.82-14.14-4.74-28.31-9.72-42.47-14.23-30.92-18.93-61.63-38.34-90.47-60.54-22.23-25.84-34.15-53.55-50.27-81.81-53.06-93-63.16-205.09-19.87-300C162.9,256.06,177.61,216.05,211.14,185.05Z" />
      <path class="cls-71"
        d="M217.35,187.18c71.3-66.62,150.74-105.09,240.07-122.82,38.78,0,77.65-1.69,116.33,1,22.89,1.57,44.25,7.59,64.82,14.12,57.74,18.32,108,50.41,158.1,93.07,20.86,29.56,50.68,50.08,61.66,80,23.12,35.52,38.61,72.11,49.86,107.1,77,239.51-130.54,315.31-318,375.56-33.85,10.83-66.27,21.55-96,31.76-46.27,15.92-93.12,2.72-140.18-13.17C339.91,749,325.75,744,311.61,739.5c-30.84-19.1-61.49-38.61-90.53-60.52-22.41-25.48-35.36-52.88-51.3-81-52.5-92.41-62-203.65-18.93-298C170,258,184.29,218.07,217.35,187.18Z" />
      <path class="cls-72"
        d="M223,189.84C294.24,122.6,373.9,83.83,463.49,65.7c39.06,0,78.19-1.78,117.15.81,23.07,1.54,44.59,7.56,65.3,14.1,58.17,18.36,108.77,50.7,159.19,93.67,20.75,29.66,50.65,50.12,61.5,80.11,23.1,35.56,38.56,72.15,49.8,107.09,77.3,240.3-132.06,314-319.59,373.76-33.85,10.74-66.29,21.43-96,31.66-46.29,16-93.13,2.47-140.1-13.53-14.11-4.81-28.25-9.86-42.38-14.42-30.75-19.26-61.34-38.87-90.6-60.48-22.58-25.13-36.55-52.22-52.32-80.1-51.95-91.86-60.89-202.2-18-296.07C176.62,260.49,190.43,220.62,223,189.84Z" />
      <path class="cls-73"
        d="M228.05,193.11c71.13-67.86,151-106.94,240.86-125.46,39.33,0,78.73-1.87,118,.65,23.24,1.49,44.93,7.51,65.78,14.06,58.59,18.41,109.5,51,160.28,94.28,20.64,29.77,50.62,50.15,61.35,80.19C897.37,292.41,912.8,329,924,363.9c77.55,241.09-133.59,312.69-321.17,372-33.87,10.66-66.31,21.32-95.95,31.56-46.29,16-93.12,2.23-140-13.89-14.11-4.84-28.23-9.92-42.34-14.5-30.66-19.44-61.2-39.15-90.67-60.46-22.75-24.77-37.75-51.55-53.34-79.24-51.39-91.3-59.76-200.76-17-294.12C182.56,263.57,195.91,223.77,228.05,193.11Z" />
      <path class="cls-74"
        d="M232.3,197.06c71-68.49,151.14-107.86,241.27-126.79,39.59,0,79.26-2,118.78.49,23.42,1.45,45.28,7.45,66.27,14,59,18.37,110.24,51.29,161.36,94.88,20.54,29.87,50.6,50.19,61.2,80.26,23.06,35.61,38.46,72.2,49.67,107.06,77.82,241.88-135.1,311.38-322.74,370.14-33.87,10.59-66.33,21.21-95.94,31.47-46.3,16-93.12,2-139.93-14.25-14.09-4.88-28.2-10-42.3-14.59-30.57-19.61-61.05-39.42-90.72-60.43-22.93-24.42-39-50.88-54.37-78.39-50.83-90.74-58.63-199.32-16.1-292.16C187.74,267.35,200.63,227.6,232.3,197.06Z" />
      <path class="cls-75"
        d="M235.66,201.78C306.6,132.66,386.93,93,477.32,73.67c39.87,0,79.81-2,119.6.32,23.6,1.41,45.62,7.41,66.75,14,59.46,18.44,111,51.58,162.46,95.48,20.42,30,50.57,50.23,61,80.34,23.05,35.64,38.41,72.23,49.61,107,78.08,242.67-136.62,310.07-324.31,368.34-33.89,10.5-66.36,21.09-95.94,31.36-46.3,16.09-93.1,1.67-139.84-14.59-14.08-4.94-28.17-10.07-42.26-14.69-30.48-19.78-60.91-39.69-90.79-60.4-23.11-24.07-40.11-50.24-55.39-77.53-50.12-90.28-57.51-197.89-15.17-290.2C192,271.88,204.44,232.2,235.66,201.78Z" />
      <path class="cls-76"
        d="M238.07,207.31C308.79,137.43,389.47,97.6,480.13,77.88c40.14,0,80.34-2.14,120.41.16,23.78,1.36,46,7.38,67.24,14,59.87,18.52,111.72,51.87,163.55,96.09,20.31,30.07,50.54,50.26,60.88,80.4,23,35.67,38.36,72.26,49.55,107C1020.1,619,803.63,684.3,615.87,742.07c-33.9,10.42-66.38,21-95.93,31.27-46.31,16.13-93.11,1.45-139.76-15-14.06-5-28.14-10.13-42.21-14.78-30.4-19.94-60.76-40-90.86-60.38-23.28-23.7-41.33-49.55-56.41-76.67-49.64-89.67-56.38-196.44-14.23-288.24C195.34,277.23,207.26,237.56,238.07,207.31Z" />
      <path class="cls-77"
        d="M943.75,380.78c101.93,285.27-231.45,325.5-423.39,395.91-60.62,20.11-121.23-10.06-181.85-30.18l-90.92-60.35c-101-100.58-121.23-241.4-70.72-362.1,20.21-40.23,30.31-80.47,60.62-110.64C308.2,143,389,102.78,480,82.66H601.18C692.1,92.72,762.82,133,833.53,193.3c20.21,30.18,50.52,50.29,60.73,80.48C917.28,309.48,933.69,345.73,943.75,380.78Z" />
      <path class="cls-78"
        d="M239.93,217.91c52.51-50.56,110.29-86.09,173.23-109.84a543.3,543.3,0,0,1,70.18-20.8c40.54-.37,81.22-2.7,121.75-.45,91.69,5.1,162.55,50.8,232.88,111.9,20,30,50,50.14,60.16,80.2C920.91,314.44,936,350.85,947,385.46c21.76,68.71,23.28,122.14,5.72,166.18-29.23,72.89-104.8,117.68-191.27,151.46C682,734,594,756.82,523.6,780.92c-60.2,20.6-121-10.16-181.47-30.25q-45.4-30-90.77-60.15c-100.63-100-124.72-241.38-71.91-360.25,13.77-31,24-61.07,40.49-87.53A132.13,132.13,0,0,1,239.93,217.91Z" />
      <path class="cls-79"
        d="M240.7,222.37c53-49.35,111-85.17,174.07-109.31a531.84,531.84,0,0,1,70.28-21.21c40.68-.74,81.56-3.18,122.28-.9,92,5.17,163.46,51.32,233.4,113.16,19.8,29.89,49.5,50,59.59,79.92,22.55,35.34,37.51,71.57,48.26,106.07,21.33,68.45,22.7,121.85,5.1,166C924.3,628.94,849.07,673.8,762.81,707.66c-79.32,30.9-167.11,53.81-237.65,77.45-60.09,20.15-120.77-10.25-181.09-30.31Q298.72,725,253.46,694.85c-100.23-99.52-124.1-239.57-73.11-358.39,13.49-31.44,23.38-62,40-89A124.09,124.09,0,0,1,240.7,222.37Z" />
      <path class="cls-80"
        d="M241.08,227.08C294.62,178.94,352.87,142.94,416,118.3a526.74,526.74,0,0,1,70.39-21.62c40.81-1.11,81.89-3.66,122.8-1.34,92.39,5.23,164.36,51.82,233.92,114.41,19.6,29.74,49,49.83,59,79.63,22.32,35.17,37.12,71.22,47.65,105.61,20.9,68.2,22.25,121.62,4.49,165.78-29.32,72.9-104.42,117.76-190.48,151.71-79.2,30.88-166.77,53.89-237.43,77.08-60,19.69-120.56-10.36-180.72-30.38q-45.28-29.56-90.46-59.75c-99.82-99-123.5-237.79-74.3-356.54,13.2-31.88,22.79-62.93,39.41-90.56A117.33,117.33,0,0,1,241.08,227.08Z" />
      <path class="cls-81"
        d="M241.15,232q81.07-70.4,175.75-108.26a522,522,0,0,1,70.5-22c40.94-1.49,82.23-4.14,123.32-1.79,92.75,5.29,165.27,52.33,234.45,115.66,19.4,29.61,48.49,49.68,58.43,79.36,22.09,35,36.72,70.86,47,105.14,20.46,67.95,21.7,121.35,3.87,165.57-29.41,72.9-104.15,118-190.09,151.84-79,31.08-166.43,54-237.22,76.71-59.9,19.24-120.33-10.45-180.35-30.44q-45.23-29.37-90.29-59.55c-99.43-98.47-122.95-236-75.51-354.69,12.93-32.33,22.21-63.86,38.87-92.08A112,112,0,0,1,241.15,232Z" />
      <path class="cls-82"
        d="M240.89,237.17c54.56-45.73,113.33-82.07,176.59-107.73A517.77,517.77,0,0,1,488.09,107c41.08-1.86,82.57-4.61,123.84-2.24,93.11,5.36,166.18,52.84,235,116.92,19.19,29.47,48,49.53,57.86,79.08,21.85,34.8,36.32,70.5,46.43,104.67,20,67.7,21.17,121.08,3.26,165.37-29.49,72.9-103.94,118.12-189.69,152-78.86,31.13-166.1,54.07-237,76.35-59.79,18.79-120.1-10.55-180-30.51-30.11-19.44-60.17-39.14-90.14-59.35-99-97.94-122.4-234.32-76.7-352.84,12.64-32.78,21.62-64.79,38.33-93.59A106.9,106.9,0,0,1,240.89,237.17Z" />
      <path class="cls-83"
        d="M240.37,242.5c55.08-44.51,114.1-81,177.44-107.2a512.45,512.45,0,0,1,70.71-22.85c41.22-2.23,82.91-5.09,124.37-2.69,93.46,5.43,167.08,53.36,235.49,118.18,19,29.32,47.48,49.38,57.29,78.8,21.62,34.62,35.92,70.14,45.82,104.2,19.6,67.44,20.63,120.81,2.64,165.17C924.57,649,850.4,694.32,764.84,728.2c-78.73,31.16-165.75,54.15-236.81,76-59.69,18.34-119.87-10.65-179.6-30.58-30.07-19.3-60.07-38.93-90-59.15-98.63-97.41-122-232.67-77.89-351,12.31-33.25,21-65.72,37.79-95.1C224.27,258.72,231.73,249.52,240.37,242.5Z" />
      <path class="cls-84"
        d="M239.52,248c55.59-43.3,114.86-80,178.27-106.67,22.31-9.38,46-16.88,70.83-23.25,41.35-2.61,83.24-5.58,124.89-3.14,93.81,5.49,168,53.86,236,119.43,18.8,29.18,47,49.23,56.72,78.52,21.39,34.44,35.52,69.78,45.21,103.74,19.17,67.18,20.09,120.53,2,165C923.83,654.47,850,699.89,764.58,733.79,686,765,599.16,788,528,809.41c-59.58,17.89-119.64-10.75-179.22-30.65-30-19.17-60-38.71-89.82-59-98.24-96.88-121.4-230.94-79.09-349.13C191.9,337,200.27,304,217.09,274.06,223.07,264.27,230.71,254.91,239.52,248Z" />
      <path class="cls-85"
        d="M238.45,253.63c56.1-42.09,115.63-78.95,179.11-106.14,22.25-9.53,46-17.14,70.93-23.67,41.49-3,83.59-6,125.42-3.58,94.16,5.55,168.9,54.37,236.54,120.68C869,270,896.91,290,906.59,319.16c21.16,34.27,35.12,69.43,44.6,103.28,18.74,66.93,19.55,120.26,1.41,164.75C922.87,660.08,849.28,705.6,764.09,739.53,685.64,770.78,599,793.87,527.7,814.78c-59.48,17.44-119.42-10.85-178.85-30.71-30-19-59.89-38.49-89.66-58.76C161.35,629,138.24,496,178.9,378c11.78-34.19,19.84-67.58,36.71-98.14C221.65,270,229.47,260.45,238.45,253.63Z" />
      <path class="cls-86"
        d="M237.15,259.39c56.61-40.88,116.39-77.91,180-105.61,22.2-9.68,46-17.4,71-24.08,41.62-3.34,83.92-6.53,125.94-4,94.52,5.61,169.81,54.88,237.06,121.94,18.39,28.89,46,48.92,55.57,78,20.93,34.09,34.72,69.07,44,102.81,18.3,66.67,19,120,.79,164.55-29.81,72.88-103.11,118.5-188.11,152.47-78.31,31.29-164.73,54.42-236.18,74.88-59.38,17-119.2-10.95-178.47-30.78-30-18.9-59.81-38.28-89.52-58.56-97.43-95.82-120.51-227.65-81.48-345.42C189.22,350.85,197,317,213.9,285.86,220,275.77,228,266.11,237.15,259.39Z" />
      <path class="cls-87"
        d="M235.64,265.25c57.13-39.67,117.16-76.87,180.79-105.08,22.16-9.83,46-17.66,71.15-24.49,41.75-3.72,84.26-7,126.46-4.48,94.87,5.68,170.72,55.39,237.59,123.2,18.18,28.75,45.45,48.77,55,77.68C927.32,366,941,400.79,950,434.42c17.88,66.42,18.48,119.72.18,164.34-29.89,72.88-102.9,118.61-187.71,152.6-78.18,31.33-164.39,54.52-236,74.51-59.27,16.55-119-11-178.1-30.85-29.91-18.76-59.72-38-89.35-58.35-97-95.29-120.11-226-82.68-343.57C187.55,357.94,195,323.66,212,291.93,218.15,281.69,226.34,271.87,235.64,265.25Z" />
      <path class="cls-88"
        d="M234,271.19c57.64-38.46,117.92-75.82,181.63-104.55,22.11-10,46-17.92,71.26-24.9,41.89-4.09,84.6-7.49,127-4.93,95.23,5.74,171.63,55.91,238.11,124.45,18,28.61,45,48.62,54.42,77.4a384,384,0,0,1,42.77,101.88c17.45,66.17,17.94,119.45-.44,164.14-30,72.87-102.69,118.7-187.31,152.72-78,31.38-164,54.62-235.78,74.15-59.16,16.11-118.74-11.15-177.72-30.92C318,782,288.25,762.8,258.68,742.48,162,647.72,138.94,518,174.8,400.76c10.9-35.65,18.08-70.37,35.09-102.68C216.11,287.69,224.48,277.71,234,271.19Z" />
      <path class="cls-89"
        d="M232.1,277.19c58.15-37.25,118.68-74.77,182.47-104,22.05-10.11,46-18.18,71.36-25.3,42-4.46,84.94-8,127.51-5.38C709,148.29,786,198.9,852.07,268.19c17.79,28.47,44.44,48.47,53.85,77.12a378.88,378.88,0,0,1,42.16,101.41c17,65.91,17.4,119.18-1.05,163.94C917,683.53,844.54,729.45,760.1,763.5c-77.9,31.42-163.7,54.72-235.56,73.78C465.48,853,406,826,347.19,806.3c-29.83-18.49-59.54-37.62-89-57.95-96.24-94.24-119.38-222.87-85.07-339.87,10.6-36.14,17.49-71.29,34.55-104.2C213.91,293.74,222.46,283.61,232.1,277.19Z" />
      <path class="cls-90"
        d="M230.11,283.23c58.66-36,119.44-73.72,183.31-103.5,22-10.26,46-18.44,71.47-25.71,42.16-4.84,85.27-8.45,128-5.83,95.93,5.87,173.44,56.92,239.15,127C869.65,303.48,896,323.47,905.34,352a373,373,0,0,1,41.55,100.94c16.59,65.67,16.87,118.92-1.66,163.74C915.09,689.54,843,735.56,758.7,769.64c-77.77,31.46-163.35,54.82-235.36,73.42-59,15.22-118.28-11.35-177-31-29.79-18.36-59.45-37.4-88.88-57.76-95.84-93.7-119.06-221.31-86.27-338,10.3-36.65,16.9-72.23,34-105.72C211.57,299.84,220.3,289.55,230.11,283.23Z" />
      <path class="cls-91"
        d="M228,289.28c59.17-34.82,120.2-72.67,184.14-103,22-10.4,46-18.7,71.58-26.12,42.3-5.2,85.61-8.92,128.56-6.28,96.28,5.94,174.35,57.44,239.68,128.22,17.38,28.19,43.43,48.17,52.69,76.56a367.91,367.91,0,0,1,40.94,100.48c16.16,65.41,16.33,118.65-2.28,163.53-30.21,72.86-102.07,119-186.13,153.1-77.63,31.5-163,54.92-235.15,73.05C463.19,863.63,404,837.41,345.44,817.73c-29.76-18.22-59.36-37.18-88.73-57.56C161.27,667,137.94,540.4,169.24,424c10-37.15,16.31-73.15,33.47-107.23C209.11,306,218,295.5,228,289.28Z" />
      <path class="cls-92"
        d="M225.79,295.33c59.68-33.61,121-71.62,185-102.44,21.9-10.54,46-19,71.69-26.53,42.42-5.58,85.94-9.4,129.07-6.73,96.64,6,175.26,58,240.2,129.48,17.18,28,42.93,48,52.12,76.28a362.06,362.06,0,0,1,40.33,100c15.73,65.16,15.8,118.38-2.89,163.33C911,701.59,839.44,747.81,755.56,782c-77.49,31.55-162.66,55-234.94,72.68C461.88,869,402.79,843.09,344.4,823.45c-29.72-18.09-59.27-37-88.57-57.36-95-92.64-118.5-218.25-88.66-334.31,9.68-37.67,15.72-74.08,32.93-108.74C206.56,312.05,215.66,301.45,225.79,295.33Z" />
      <path class="cls-93"
        d="M223.51,301.36C283.7,269,345.23,230.79,409.34,199.45c21.85-10.69,46-19.22,71.79-26.94,42.56-6,86.29-9.89,129.6-7.18,97,6.06,176.17,58.46,240.73,130.73,17,27.9,42.41,47.86,51.54,76a357.33,357.33,0,0,1,39.72,99.54C958,536.51,958,589.71,939.21,634.73,908.83,707.58,837.56,753.9,753.87,788.08c-77.35,31.59-162.32,55.12-234.73,72.31-58.63,13.92-117.61-11.64-175.85-31.25-29.67-17.95-59.18-36.75-88.41-57.16C160.23,679.87,136.62,555.25,165,439.53c9.37-38.19,15.13-75,32.39-110.26C203.93,318.13,213.21,307.37,223.51,301.36Z" />
      <path class="cls-94"
        d="M221.17,307.33c60.71-31.19,122.48-69.5,186.67-101.38,21.8-10.82,46-19.48,71.91-27.35,42.69-6.32,86.62-10.36,130.12-7.62,97.35,6.12,177.07,59,241.25,132,16.77,27.75,41.91,47.7,51,75.72a352.25,352.25,0,0,1,39.11,99.07c14.87,64.65,14.72,117.84-4.13,162.92C906.61,713.54,835.64,760,752.13,794.16c-77.22,31.63-162,55.23-234.53,71.94-58.52,13.48-117.38-11.73-175.47-31.32C312.49,817,283,798.26,253.87,777.83c-94.24-91.59-118-215.24-91.05-330.6,9.05-38.71,14.55-75.94,31.85-111.78C201.25,324.17,210.71,313.25,221.17,307.33Z" />
      <path class="cls-95"
        d="M218.81,313.25c61.22-30,123.24-68.45,187.51-100.86,21.75-11,45.94-19.74,72-27.76,42.83-6.69,87-10.84,130.65-8.07,97.7,6.19,178,59.48,241.77,133.24,16.57,27.62,41.4,47.56,50.4,75.45a347.2,347.2,0,0,1,38.49,98.6c14.45,64.4,14.19,117.57-4.73,162.72-30.55,72.85-101.23,119.36-184.56,153.6C673.28,831.84,588.73,855.51,516,871.75c-58.42,13-117.16-11.83-175.1-31.39-29.6-17.67-59-36.31-88.1-56.75C159,692.55,135,569.85,160.59,454.86c8.73-39.24,14-76.87,31.31-113.29C198.54,330.13,208.18,319.06,218.81,313.25Z" />
      <path class="cls-96"
        d="M216.44,319.07c61.73-28.78,124-67.39,188.35-100.32,21.69-11.11,45.94-20,72.12-28.17,43-7.07,87.29-11.32,131.17-8.53,98,6.26,178.88,60,242.29,134.5,16.37,27.48,40.9,47.4,49.83,75.16a342.37,342.37,0,0,1,37.88,98.15c14,64.14,13.65,117.29-5.35,162.51-30.62,72.85-101,119.46-184.16,153.73-76.94,31.71-161.28,55.45-234.11,71.21-58.3,12.61-116.93-11.94-174.72-31.46-29.56-17.54-58.91-36.09-87.94-56.55C158.35,698.77,134.12,577,158.35,462.4c8.41-39.76,13.37-77.8,30.77-114.8C195.82,336,205.65,324.78,216.44,319.07Z" />
      <path class="cls-97"
        d="M214.08,324.78c62.25-27.56,124.75-66.33,189.19-99.79,21.65-11.24,45.94-20.26,72.23-28.58,43.1-7.44,87.63-11.8,131.69-9C705.6,193.75,787,247.94,850,323.19c16.17,27.33,40.39,47.25,49.25,74.88a337.65,337.65,0,0,1,37.28,97.68c13.58,63.89,13.11,117-6,162.3C899.86,730.9,829.76,777.61,746.8,811.91c-76.8,31.76-160.93,55.57-233.9,70.85-58.19,12.18-116.7-12-174.34-31.53-29.52-17.4-58.82-35.87-87.79-56.35-93.05-90-117.54-210.83-94.64-325,8.07-40.29,12.78-78.72,30.23-116.31C193.12,341.78,203.13,330.4,214.08,324.78Z" />
      <path class="cls-98"
        d="M211.76,330.36c62.76-26.35,125.51-65.26,190-99.26,21.59-11.38,45.93-20.52,72.34-29,43.23-7.81,88-12.28,132.21-9.42,98.76,6.38,180.7,61,243.34,137,16,27.19,39.89,47.1,48.68,74.6A332.53,332.53,0,0,1,935,501.51c13.16,63.64,12.58,116.76-6.58,162.1-30.79,72.85-100.6,119.66-183.37,154-76.66,31.8-160.58,55.68-233.69,70.47-58.08,11.76-116.47-12.13-174-31.58-29.48-17.28-58.73-35.66-87.63-56.16C157.13,710.86,132.36,591,153.94,477.14c7.74-40.84,12.19-79.66,29.69-117.84C190.45,347.42,200.64,335.88,211.76,330.36Z" />
      <path class="cls-99"
        d="M209.5,335.79c63.27-25.14,126.26-64.2,190.87-98.73,21.54-11.52,45.93-20.78,72.44-29.4,43.37-8.18,88.31-12.76,132.74-9.87,99.12,6.44,181.61,61.52,243.86,138.27,15.77,27,39.39,46.94,48.11,74.32a327.53,327.53,0,0,1,36.05,96.74c12.73,63.39,12,116.49-7.2,161.9C895.5,741.87,826,788.77,743.4,823.13c-76.52,31.84-160.23,55.8-233.48,70.11-58,11.33-116.25-12.23-173.6-31.66-29.44-17.13-58.64-35.43-87.47-56-92.25-88.94-117.33-207.94-97-321.34,7.4-41.38,11.6-80.59,29.15-119.35C187.84,352.9,198.21,341.21,209.5,335.79Z" />
      <path class="cls-100"
        d="M207.32,341.05c63.78-23.93,127-63.13,191.7-98.2,21.5-11.66,45.93-21,72.56-29.81,43.5-8.56,88.64-13.24,133.26-10.32,99.47,6.51,182.52,62,244.39,139.52,15.56,26.91,38.87,46.8,47.52,74.05a322.81,322.81,0,0,1,35.45,96.27c12.3,63.14,11.51,116.22-7.81,161.69-31,72.85-100.18,119.85-182.58,154.24-76.39,31.89-159.89,55.92-233.28,69.74-57.87,10.91-116-12.32-173.22-31.72-29.4-17-58.55-35.22-87.32-55.76-91.85-88.41-117.25-206.5-98.23-319.48,7.06-41.92,11-81.52,28.61-120.87C185.31,358.22,195.87,346.37,207.32,341.05Z" />
      <path class="cls-101"
        d="M205.24,346.12C269.53,323.4,333,284.05,397.78,248.44c21.45-11.79,45.93-21.3,72.67-30.22,43.63-8.93,89-13.71,133.78-10.76C704.05,214,787.66,270,849.14,348.23c15.36,26.77,38.37,46.64,47,73.77a318.18,318.18,0,0,1,34.84,95.81c11.87,62.88,11,116-8.43,161.48-31,72.85-100,119.94-182.18,154.37-76.25,31.92-159.54,56-233.07,69.37-57.76,10.48-115.8-12.42-172.85-31.79a1025.43,1025.43,0,0,1-87.16-55.56C155.79,727.81,130,610.6,147.81,498.05c6.71-42.46,10.43-82.44,28.08-122.38C182.88,363.34,193.62,351.33,205.24,346.12Z" />
      <path class="cls-102"
        d="M203.28,351c64.81-21.51,128.52-61,193.39-97.15,21.39-11.92,45.92-21.56,72.77-30.63,43.77-9.3,89.31-14.19,134.3-11.21,100.18,6.63,184.34,63,245.44,142,15.16,26.62,37.86,46.49,46.38,73.48a313.62,313.62,0,0,1,34.22,95.35c11.45,62.63,10.44,115.68-9,161.28C889.62,757,821,804.15,739,838.61c-76.11,32-159.19,56.16-232.86,69-57.65,10.06-115.57-12.53-172.47-31.86a980.11,980.11,0,0,1-87-55.36C155.56,733.05,129.45,616.74,146,504.62c6.35-43,9.84-83.37,27.53-123.89C180.58,368.24,191.5,356.08,203.28,351Z" />
      <path class="cls-103"
        d="M201.47,355.58c65.32-20.3,129.28-59.92,194.23-96.62,21.34-12,45.92-21.82,72.88-31,43.9-9.68,89.65-14.68,134.83-11.67,100.53,6.7,185.24,63.56,246,143.29,15,26.48,37.36,46.34,45.81,73.2a309.18,309.18,0,0,1,33.61,94.88c11,62.38,9.9,115.42-9.66,161.08-31.19,72.84-99.54,120.13-181.39,154.62-76,32-158.84,56.28-232.65,68.64C447.54,921.6,389.74,899.34,333,880a935,935,0,0,1-86.85-55.16C155.48,738.06,129,622.63,144.32,511c6-43.57,9.24-84.3,27-125.41C178.43,372.91,189.53,360.6,201.47,355.58Z" />
      <path class="cls-104"
        d="M199.83,359.94c65.83-19.09,130-58.85,195.07-96.09,21.29-12.19,45.91-22.08,73-31.45,44-10,90-15.15,135.36-12.11,100.88,6.76,186.15,64.07,246.48,144.55C864.47,391.17,886.57,411,895,437.76a304.8,304.8,0,0,1,33,94.41c10.6,62.13,9.37,115.15-10.27,160.87-31.28,72.85-99.34,120.23-181,154.75-75.83,32.05-158.49,56.4-232.44,68.27-57.43,9.22-115.12-12.72-171.72-32a898.37,898.37,0,0,1-86.69-55c-90.26-86.29-117.18-200.85-103-312.08,5.61-44.11,8.65-85.23,26.45-126.92C176.44,377.33,187.72,364.85,199.83,359.94Z" />
      <path class="cls-105"
        d="M198.38,364c66.34-17.88,130.78-57.78,195.91-95.56,21.24-12.32,45.91-22.34,73.09-31.86C511.56,226.18,557.71,221,603.26,224c101.23,6.82,187.06,64.58,247,145.8,14.55,26.19,36.35,46,44.66,72.64a300.54,300.54,0,0,1,32.39,93.95c10.17,61.88,8.83,114.88-10.89,160.67C885.06,769.94,817.3,817.42,735.82,852c-75.69,32.09-158.14,56.53-232.24,67.91-57.32,8.79-114.89-12.83-171.34-32.06a863.68,863.68,0,0,1-86.54-54.76C155.85,747.3,128.49,633.6,141.49,522.83c5.24-44.67,8.07-86.16,25.91-128.44C174.64,381.46,186.1,368.83,198.38,364Z" />
      <path class="cls-106"
        d="M197.14,367.8c66.86-16.67,131.53-56.7,196.75-95,21.19-12.46,45.91-22.6,73.2-32.27,44.31-10.79,90.66-16.11,136.4-13,101.59,6.88,188,65.09,247.52,147.06,14.36,26.05,35.85,45.88,44.09,72.36a296,296,0,0,1,31.78,93.48c9.74,61.63,8.3,114.61-11.5,160.47-31.45,72.84-98.91,120.41-180.21,155-75.55,32.14-157.79,56.67-232,67.54-57.21,8.38-114.66-12.92-171-32.13A827.7,827.7,0,0,1,245.8,836.7c-89.46-85.23-117.27-198.05-105.42-308.36,4.86-45.24,7.48-87.09,25.38-130C173.05,385.3,184.7,372.51,197.14,367.8Z" />
      <path class="cls-107"
        d="M196.14,371.26c67.37-15.46,132.28-55.63,197.58-94.5,21.14-12.59,45.91-22.86,73.31-32.68,44.45-11.16,91-16.59,136.93-13.46,101.94,6.95,188.87,65.6,248,148.31,14.15,25.91,35.34,45.73,43.51,72.09a291.65,291.65,0,0,1,31.18,93c9.31,61.38,7.76,114.34-12.12,160.26C883,777.13,815.87,824.8,734.76,859.41c-75.42,32.18-157.45,56.8-231.82,67.18-57.1,8-114.44-13-170.6-32.2A796.63,796.63,0,0,1,246.12,840c-89.06-84.7-117.34-196.67-106.61-306.51,4.48-45.79,6.89-88,24.84-131.47C171.7,388.81,183.53,375.87,196.14,371.26Z" />
      <path class="cls-108"
        d="M195.39,374.38c67.88-14.25,133-54.55,198.42-94,21.09-12.71,45.91-23.12,73.42-33.08,44.58-11.53,91.34-17.07,137.45-13.91,102.3,7,189.78,66.11,248.57,149.57,14,25.77,34.83,45.57,42.94,71.8,15.84,30.15,26,61.24,30.56,92.55C935.64,608.46,934,661.4,914,707.39,882.4,780.23,815.53,828,734.6,862.64c-75.28,32.22-157.1,56.93-231.61,66.8-57,7.55-114.22-13.12-170.22-32.26-29.09-15.92-57.84-33.47-86.07-54.16C158,758.85,129.27,647.74,138.9,538.36c4.08-46.35,6.3-88.95,24.29-133C170.61,392,182.62,378.89,195.39,374.38Z" />
      <path class="cls-109"
        d="M194.92,377.13c68.39-13,133.79-53.46,199.27-93.44,21-12.85,45.9-23.38,73.52-33.49,44.72-11.91,91.67-17.55,138-14.36,102.65,7.07,190.69,66.62,249.1,150.82,13.74,25.63,34.32,45.43,42.36,71.53,15.61,30,25.62,60.88,30,92.07,8.46,60.89,6.69,113.81-13.35,159.86-31.69,72.84-98.27,120.7-179,155.37-75.14,32.27-156.75,57.08-231.4,66.44-56.89,7.14-114-13.21-169.85-32.32-29.05-15.79-57.75-33.26-85.91-54C159.3,762,130,651.75,138.56,542.83c3.68-46.91,5.71-89.87,23.76-134.5C169.79,394.8,182,381.55,194.92,377.13Z" />
      <path class="cls-110"
        d="M194.75,379.51c68.91-11.83,134.54-52.38,200.11-92.92,21-13,45.89-23.64,73.63-33.9,44.85-12.28,92-18,138.49-14.81C710,245,798.58,305,856.6,390c13.54,25.48,33.82,45.27,41.79,71.25,15.37,29.78,25.22,60.53,29.34,91.61,8,60.63,6.15,113.54-14,159.65C882,785.31,815.7,833.26,735.14,868c-75,32.31-156.4,57.21-231.2,66.07-56.77,6.73-113.76-13.31-169.47-32.39-29-15.65-57.66-33-85.75-53.76-87.86-83.12-117.66-192.52-110.19-301,3.27-47.48,5.12-90.81,23.21-136C169.27,397.23,181.65,383.82,194.75,379.51Z" />
      <path class="cls-111"
        d="M194.91,381.48c69.41-10.62,135.29-51.3,200.94-92.39,20.94-13.1,45.89-23.9,73.74-34.31,45-12.65,92.34-18.5,139-15.25,103.36,7.19,192.5,67.64,250.14,153.33,13.34,25.34,33.31,45.12,41.21,71C915.11,493.43,924.79,524,928.69,555c7.62,60.38,5.62,113.27-14.58,159.45C882.25,787.26,816.26,835.3,735.88,870c-74.85,32.35-156,57.35-231,65.71-56.66,6.32-113.53-13.42-169.09-32.47-29-15.51-57.57-32.82-85.6-53.56-87.46-82.58-117.81-191.13-111.39-299.1,2.86-48,4.53-91.74,22.67-137.53C169.08,399.26,181.64,385.69,194.91,381.48Z" />
      <path class="cls-112"
        d="M195.4,383c69.93-9.4,136-50.21,201.78-91.85C418.07,277.93,443.07,267,471,256.44c45.11-13,92.67-19,139.53-15.7C714.29,248,804,308.89,861.24,395.33c13.14,25.2,32.8,45,40.63,70.68,14.92,29.43,24.44,59.83,28.13,90.68,7.19,60.14,5.08,113-15.2,159.24-31.94,72.85-97.63,121-177.83,155.76C662.25,904.08,581.26,929.18,506.19,937c-56.56,5.91-113.31-13.52-168.72-32.53C308.54,889.12,280,871.89,252,851.13c-87.07-82-118-189.75-112.59-297.25,2.43-48.6,3.94-92.66,22.13-139C169.23,400.86,182,387.13,195.4,383Z" />
      <path class="cls-113"
        d="M196.26,384.12c70.44-8.19,136.8-49.12,202.62-91.33,20.84-13.36,45.89-24.42,74-35.13,45.25-13.4,93-19.46,140.06-16.15C717,248.82,807.23,310.17,864.09,397.35c12.94,25.06,32.3,44.82,40.07,70.41,14.68,29.25,24,59.47,27.51,90.21,6.76,59.89,4.55,112.74-15.81,159-32,72.84-97.43,121.07-177.44,155.88-74.58,32.44-155.36,57.64-230.57,65-56.45,5.5-113.08-13.61-168.35-32.6-28.89-15.24-57.39-32.38-85.28-53.16-86.67-81.53-118.15-188.38-113.79-295.4,2-49.16,3.36-93.59,21.6-140.56C169.74,402,182.66,388.13,196.26,384.12Z" />
      <path class="cls-114"
        d="M197.51,384.75c70.95-7,137.55-48,203.46-90.8,20.79-13.49,45.89-24.68,74.07-35.54,45.39-13.77,93.35-19.94,140.58-16.6C720,249.19,810.85,311,867.33,398.91c12.74,24.91,31.8,44.66,39.49,70.12,14.46,29.07,23.65,59.12,26.91,89.75,6.34,59.64,4,112.47-16.43,158.83-32.11,72.85-97.21,121.17-177,156-74.44,32.48-155,57.79-230.37,64.6-56.34,5.1-112.85-13.71-168-32.66-28.85-15.11-57.3-32.17-85.12-53-86.27-81-118.34-187-115-293.55,1.56-49.73,2.76-94.52,21.05-142.08C170.64,402.69,183.75,388.66,197.51,384.75Z" />
      <path class="cls-115"
        d="M199.17,384.89c71.46-5.77,138.3-46.95,204.3-90.27,20.74-13.61,45.88-24.94,74.18-35.95,45.51-14.14,93.68-20.42,141.1-17.05C723.53,249.06,814.89,311.3,871,400c12.54,24.77,31.29,44.51,38.92,69.84,14.22,28.89,23.26,58.76,26.29,89.28,5.92,59.39,3.48,112.2-17,158.63C887,790.58,822.16,839,742.5,873.86c-74.29,32.53-154.66,57.94-230.15,64.24-56.24,4.69-112.63-13.81-167.6-32.73-28.81-15-57.21-32-85-52.77C173.91,772.14,141.24,667,143.61,560.91c1.12-50.29,2.17-95.45,20.51-143.59C172,402.89,185.24,388.7,199.17,384.89Z" />
      <path class="cls-116"
        d="M201.26,384.52c72-4.56,139-45.85,205.14-89.74,20.69-13.74,45.87-25.2,74.28-36.36,45.65-14.51,94-20.9,141.63-17.5,105.13,7.5,197.05,70.2,252.76,159.61,12.33,24.63,30.78,44.36,38.34,69.57,14,28.71,22.86,58.4,25.68,88.81,5.49,59.14,2.95,111.93-17.65,158.43C889.16,790.19,824.65,838.7,745.18,873.6,671,906.16,590.86,931.68,515.23,937.47c-56.12,4.29-112.4-13.91-167.22-32.8-28.77-14.84-57.12-31.74-84.81-52.57-85.47-79.94-118.77-184.24-117.37-289.84.67-50.85,1.58-96.38,20-145.1C173.69,402.58,187.16,388.23,201.26,384.52Z" />
      <path class="cls-117"
        d="M203.8,383.62c72.48-3.35,139.79-44.76,206-89.21,20.64-13.87,45.88-25.46,74.4-36.78,45.79-14.88,94.36-21.37,142.15-17.94C731.8,247.25,824.27,310.4,879.6,400.56c12.13,24.48,30.27,44.2,37.77,69.28,13.75,28.53,22.46,58.06,25.07,88.35,5.07,58.9,2.41,111.67-18.27,158.22C891.81,789.26,827.6,837.87,748.31,872.8c-74,32.61-154,58.24-229.74,63.5-56,3.89-112.18-14-166.85-32.87-28.73-14.69-57-31.51-84.65-52.36-85.07-79.41-119-182.87-118.57-288,.21-51.42,1-97.31,19.43-146.62C175.89,401.73,189.53,387.23,203.8,383.62Z" />
      <path class="cls-118"
        d="M206.82,382.17c73-2.14,140.55-43.67,206.82-88.69,20.59-14,45.87-25.72,74.5-37.18,45.92-15.25,94.7-21.85,142.68-18.39,105.83,7.62,198.86,71.21,253.8,162.12,11.93,24.35,29.77,44.06,37.19,69,13.53,28.35,22.08,57.7,24.47,87.88,4.64,58.65,1.87,111.4-18.89,158C895,787.79,831,836.48,751.92,871.45c-73.87,32.65-153.62,58.4-229.53,63.13-55.91,3.49-111.95-14.1-166.47-32.93-28.69-14.56-56.94-31.3-84.5-52.17C186.75,770.61,152.17,668,151.66,563.35c-.26-52,.41-98.24,18.89-148.14C178.56,400.33,192.4,385.68,206.82,382.17Z" />
      <path class="cls-119"
        d="M209.09,380.81c73.51-.93,141.31-42.57,207.66-88.15,20.54-14.11,45.87-26,74.61-37.59,46.06-15.63,95-22.33,143.2-18.84C740.75,243.91,834.33,308,888.88,399.61c11.73,24.2,29.27,43.9,36.62,68.72,13.3,28.17,21.68,57.35,23.86,87.41,4.22,58.4,1.34,111.13-19.5,157.82-32.53,72.85-96.15,121.64-175.08,156.63C681.05,902.89,601.5,928.75,525.46,933c-55.81,3.1-111.72-14.2-166.1-33-28.65-14.42-56.85-31.07-84.34-52-84.27-78.35-119.51-180.1-121-284.28-.73-52.55-.18-99.17,18.35-149.66C180.49,399,194.5,384.22,209.09,380.81Z" />
      <path class="cls-120"
        d="M210.3,379.91c74,.28,142.06-41.47,208.5-87.63,20.49-14.23,45.86-26.24,74.72-38A360.65,360.65,0,0,1,637.24,235c106.54,7.75,200.67,72.24,254.84,164.64,11.53,24.05,28.76,43.74,36,68.44,13.06,28,21.29,57,23.24,86.95,3.8,58.15.81,110.86-20.11,157.61-32.61,72.86-95.93,121.73-174.68,156.76-73.59,32.74-152.94,58.72-229.12,62.4-55.7,2.7-111.49-14.3-165.72-33.07C333.13,884.43,305,867.87,277.56,847,193.68,769.14,157.77,668.24,155.4,564.53c-1.21-53.1-.77-100.1,17.82-151.17C181.35,398.19,195.54,383.22,210.3,379.91Z" />
      <path class="cls-121"
        d="M210.67,379.35C285.21,380.84,353.48,339,420,292.25c20.45-14.35,45.86-26.5,74.83-38.41A356.52,356.52,0,0,1,639.08,234.1C746,241.91,840.67,306.85,894.45,400c11.32,23.91,28.25,43.59,35.47,68.16,12.84,27.81,20.9,56.64,22.64,86.48,3.37,57.91.27,110.6-20.73,157.41-32.7,72.86-95.72,121.83-174.28,156.89-73.46,32.78-152.6,58.88-228.91,62-55.6,2.3-111.27-14.4-165.35-33.13-28.57-14.16-56.67-30.65-84-51.57C195.79,769,159.19,668.94,155.91,565.69c-1.71-53.66-1.36-101,17.27-152.68C181.37,397.68,195.75,382.56,210.67,379.35Z" />
      <path class="cls-122"
        d="M210.26,379.11c75,2.71,143.56-39.26,210.17-86.56,20.4-14.48,45.86-26.76,74.94-38.82a352.26,352.26,0,0,1,144.76-20.19c107.25,7.87,202.5,73.26,255.9,167.15,11.12,23.77,27.75,43.44,34.9,67.88,12.6,27.64,20.5,56.29,22,86,2.95,57.67-.26,110.34-21.35,157.21-32.78,72.86-95.5,121.92-173.88,157C684.4,901.63,605.46,927.85,529,930.47c-55.5,1.91-111-14.5-165-33.2-28.54-14-56.59-30.42-83.87-51.37C197.1,769.14,159.8,670,155.62,567.18c-2.2-54.22-1.94-102,16.74-154.2C180.61,397.51,195.17,382.22,210.26,379.11Z" />
      <path class="cls-123"
        d="M209.09,379.18c75.56,3.91,144.32-38.17,211-86,20.35-14.6,45.85-27,75-39.23a348.54,348.54,0,0,1,145.29-20.64c107.61,7.94,203.4,73.77,256.42,168.41,10.92,23.63,27.24,43.29,34.32,67.6,12.37,27.46,20.11,55.94,21.41,85.55,2.53,57.42-.79,110.06-22,157-32.86,72.86-95.28,122-173.49,157.14-73.17,32.86-151.91,59.21-228.49,61.3-55.39,1.51-110.82-14.6-164.59-33.27-28.5-13.89-56.5-30.21-83.72-51.17C197.66,769.6,159.66,671.29,154.59,569c-2.71-54.78-2.53-102.88,16.2-155.71C179.1,397.62,193.84,382.19,209.09,379.18Z" />
      <path class="cls-124"
        d="M207.23,379.51C283.3,384.64,352.3,342.45,419.08,294c20.31-14.72,45.86-27.28,75.16-39.64a344.53,344.53,0,0,1,145.81-21.08c108,8,204.31,74.28,256.94,169.66,10.72,23.49,26.73,43.14,33.75,67.32,12.14,27.28,19.71,55.58,20.8,85.08,2.11,57.18-1.33,109.8-22.57,156.8C896,785,833.89,834.25,755.87,869.41c-73,32.9-151.57,59.38-228.29,60.93C472.3,931.46,417,915.64,363.36,897c-28.45-13.75-56.4-30-83.55-51-82.28-75.71-121-173.15-126.95-275-3.23-55.34-3.12-103.82,15.66-157.23C176.89,398,191.81,382.42,207.23,379.51Z" />
      <path class="cls-125"
        d="M204.71,380.09c76.58,6.34,145.82-36,212.7-85,20.25-14.84,45.85-27.54,75.26-40.05A340.8,340.8,0,0,1,639,233.53c108.31,8.05,205.22,74.79,257.47,170.91,10.51,23.35,26.22,43,33.17,67.05,11.91,27.1,19.32,55.23,20.19,84.61C951.52,613,948,665.63,926.64,712.69c-33,72.88-94.85,122.21-172.7,157.4C681.05,903,602.71,929.64,525.86,930.66c-55.18.72-110.36-14.8-163.84-33.41-28.42-13.62-56.32-29.77-83.4-50.77-81.88-75.17-121.33-171.75-128.14-273.16-3.76-55.89-3.72-104.75,15.11-158.75C174,398.65,189.13,382.9,204.71,380.09Z" />
      <path class="cls-126"
        d="M201.59,380.89c77.09,7.55,146.57-34.85,213.53-84.45,20.2-15,45.85-27.8,75.37-40.46a337.39,337.39,0,0,1,146.86-22c108.66,8.12,206.12,75.3,258,172.17,10.32,23.2,25.73,42.83,32.61,66.76,11.67,26.92,18.92,54.88,19.58,84.15,1.26,56.69-2.4,109.27-23.81,156.39C890.59,786.34,829.07,835.76,751.41,871c-72.75,33-150.9,59.73-227.87,60.2-55.09.34-110.14-14.9-163.47-33.47-28.38-13.48-56.23-29.55-83.25-50.57-81.48-74.64-121.67-170.34-129.34-271.31-4.28-56.44-4.3-105.67,14.58-160.26C170.55,399.5,185.84,383.6,201.59,380.89Z" />
      <path class="cls-127"
        d="M197.9,381.88c77.6,8.76,147.33-33.74,214.37-83.92,20.16-15.08,45.84-28.06,75.48-40.87a334.21,334.21,0,0,1,147.38-22.43c109,8.18,207,75.81,258.51,173.43,10.11,23.06,25.22,42.68,32,66.48,11.44,26.74,18.53,54.53,19,83.68.84,56.45-2.93,109-24.42,156.19C887,787.32,825.79,836.83,748.31,872.08c-72.61,33-150.56,59.91-227.67,59.84-55,0-109.91-15-163.09-33.54C329.21,885,301.41,869,274.46,848c-81.08-74.11-122-168.93-130.53-269.46-4.83-57-4.89-106.6,14-161.77C166.51,400.55,182,384.49,197.9,381.88Z" />
      <path class="cls-128"
        d="M193.69,383c78.12,10,148.09-32.63,215.21-83.39,20.11-15.2,45.84-28.32,75.59-41.28a331.05,331.05,0,0,1,147.9-22.88c109.38,8.24,207.94,76.32,259,174.69,9.91,22.92,24.71,42.53,31.45,66.2,11.21,26.56,18.14,54.17,18.36,83.21.42,56.21-3.46,108.74-25,156C882.92,788.46,822,838.06,744.69,873.35c-72.46,33.08-150.22,60.08-227.45,59.46-54.88-.43-109.69-15.09-162.72-33.6-28.3-13.21-56-29.12-82.93-50.17C190.9,775.45,149.2,681.52,139.85,581.43c-5.37-57.53-5.47-107.53,13.5-163.29C162,401.77,177.61,385.55,193.69,383Z" />
      <path class="cls-129"
        d="M189,384.35c78.63,11.18,148.84-31.53,216.05-82.86,20.07-15.33,45.84-28.59,75.7-41.69a327.71,327.71,0,0,1,148.42-23.33C738.91,244.77,838,313.3,888.74,412.41c9.71,22.77,24.2,42.37,30.88,65.92,11,26.38,17.75,53.82,17.75,82.75,0,56-4,108.47-25.65,155.77-33.37,72.89-94,122.58-171.12,157.9-72.32,33.13-149.88,60.27-227.25,59.1C458.57,933,403.89,918.66,351,900.18c-28.26-13.07-56-28.9-82.78-50C188,777.15,145.48,684.11,135.31,584.46c-5.93-58.08-6.07-108.46,12.95-164.81C156.93,403.13,172.77,386.75,189,384.35Z" />
      <path class="cls-130"
        d="M183.91,385.77c79.14,12.39,149.6-30.41,216.89-82.33,20-15.45,45.83-28.84,75.8-42.1a324.83,324.83,0,0,1,148.95-23.78c110.08,8.36,209.76,77.34,260.08,177.19,9.51,22.64,23.7,42.23,30.31,65.65,10.75,26.2,17.36,53.47,17.14,82.28-.43,55.72-4.53,108.2-26.27,155.57-33.45,72.89-93.77,122.67-170.72,158-72.18,33.16-149.55,60.44-227,58.73-54.68-1.21-109.23-15.29-162-33.74-28.22-12.94-55.87-28.68-82.62-49.77C184.57,779,141.33,686.82,130.34,587.6c-6.5-58.62-6.66-109.39,12.41-166.32C151.48,404.6,167.5,388.07,183.91,385.77Z" />
      <path class="cls-131"
        d="M178.45,387.28c79.65,13.6,150.35-29.3,217.73-81.8,20-15.56,45.83-29.1,75.91-42.51a322.16,322.16,0,0,1,149.47-24.23C732,247.17,832.23,316.59,882.17,417.19c9.3,22.5,23.19,42.08,29.73,65.37,10.52,26,17,53.12,16.53,81.81-.85,55.48-5.06,107.94-26.88,155.37C868,792.64,808,842.5,731.22,877.89c-72,33.21-149.21,60.63-226.83,58.37-54.59-1.59-109-15.39-161.6-33.81C314.61,889.65,287,874,260.33,852.88c-79.49-72-123.51-163.25-135.32-262-7.07-59.15-7.25-110.32,11.88-167.83C145.68,406.17,161.88,389.49,178.45,387.28Z" />
      <path class="cls-132"
        d="M172.68,388.86c80.16,14.81,151.11-28.18,218.57-81.27,19.92-15.68,45.83-29.36,76-42.92a319.3,319.3,0,0,1,150-24.67c110.79,8.48,211.57,78.36,261.13,179.7,9.1,22.35,22.69,41.92,29.15,65.09,10.29,25.84,16.58,52.77,15.92,81.34C922.2,621.37,917.87,673.8,896,721.3,862.35,794.2,802.63,844.15,726,879.58c-71.89,33.25-148.87,60.81-226.62,58-54.49-2-108.78-15.49-161.22-33.88-28.14-12.67-55.69-28.24-82.3-49.37C176.8,782.86,132,692.51,119.37,594.13c-7.65-59.68-7.83-111.24,11.34-169.34C139.56,407.81,155.94,391,172.68,388.86Z" />
      <path class="cls-133"
        d="M166.64,390.49c80.68,16,151.87-27.07,219.41-80.75,19.88-15.79,45.83-29.62,76.13-43.33A316.87,316.87,0,0,1,612.7,241.29c111.14,8.55,212.48,78.87,261.65,181,8.9,22.21,22.18,41.77,28.58,64.81,10.06,25.66,16.18,52.42,15.31,80.88-1.69,55-6.12,107.4-28.11,155-33.71,72.91-93.13,123-169.54,158.4-71.76,33.3-148.54,61-226.41,57.64-54.4-2.36-108.56-15.59-160.85-34-28.1-12.53-55.6-28-82.15-49.17-78.69-70.94-124.3-160.37-137.71-258.34-8.24-60.22-8.42-112.18,10.8-170.86C133.18,409.49,149.74,392.49,166.64,390.49Z" />
      <path class="cls-134"
        d="M160.4,392.13c81.19,17.23,152.62-25.95,220.25-80.21C400.48,296,426.47,282,456.88,268.18a314.14,314.14,0,0,1,151-25.57C719.42,251.21,821.31,322,870.1,424.82c8.69,22.07,21.67,41.62,28,64.53,9.83,25.48,15.79,52.07,14.7,80.41-2.11,54.76-6.65,107.14-28.72,154.76-33.8,72.91-92.91,123-169.15,158.53-71.61,33.34-148.21,61.2-226.2,57.26-54.3-2.73-108.33-15.68-160.47-34-28.07-12.39-55.51-27.8-82-49C168,786.92,121.56,698.4,107.36,600.84c-8.84-60.74-9-113.1,10.25-172.38C126.58,411.19,143.33,394,160.4,392.13Z" />
      <path class="cls-135"
        d="M154,393.77c81.71,18.44,153.39-24.84,221.1-79.69,19.78-16,45.81-30.14,76.34-44.15a311.82,311.82,0,0,1,151.56-26c111.85,8.67,214.3,79.89,262.7,183.48,8.49,21.92,21.17,41.46,27.43,64.24,9.6,25.31,15.4,51.72,14.09,80-2.53,54.51-7.19,106.87-29.34,154.55C844,799.05,785.17,849.27,709.11,884.79c-71.47,33.38-147.88,61.39-226,56.9C428.91,938.57,375,925.9,323,907.61c-28-12.26-55.42-27.59-81.84-48.77C163.29,789,116.06,701.36,101.08,604.2c-9.45-61.27-9.6-114,9.72-173.89C119.82,412.88,136.75,395.57,154,393.77Z" />
      <path class="cls-136"
        d="M147.46,395.37C229.67,415,301.6,371.66,369.39,316.21c19.74-16.14,45.81-30.4,76.45-44.55a309.55,309.55,0,0,1,152.09-26.47c112.2,8.73,215.2,80.4,263.21,184.73,8.3,21.78,20.67,41.31,26.87,64,9.36,25.13,15,51.37,13.47,79.48-3,54.28-7.72,106.61-30,154.35-34,72.92-92.48,123.23-168.36,158.79C631.85,919.92,555.62,948.08,477.38,943c-54.11-3.5-107.87-15.89-159.72-34.15-28-12.12-55.33-27.37-81.67-48.57-77.5-69.35-125.54-156-141.31-252.78-10.06-61.8-10.19-115,9.18-175.41C113,414.54,130.06,397.08,147.46,395.37Z" />
      <path class="cls-137"
        d="M140.86,396.92c82.73,20.86,154.91-22.59,222.77-78.63,19.7-16.26,45.81-30.66,76.56-45A307.23,307.23,0,0,1,592.8,246.41c112.56,8.79,216.11,80.91,263.74,186,8.1,21.64,20.16,41.16,26.29,63.69,9.13,24.94,14.61,51,12.87,79-3.37,54-8.26,106.34-30.57,154.14-34,72.93-92.26,123.33-168,158.92C626,921.61,549.94,949.93,471.59,944.31c-54-3.87-107.65-16-159.35-34.22-27.95-12-55.24-27.15-81.52-48.37-77.1-68.82-126-154.55-142.5-250.93C77.53,548.48,77.44,494.9,96.86,433.87,106,416.15,123.3,398.53,140.86,396.92Z" />
      <path class="cls-138"
        d="M134.25,398.39c83.24,22.07,155.66-21.48,223.61-78.1,19.65-16.38,45.81-30.92,76.67-45.38a305.07,305.07,0,0,1,153.13-27.36c112.91,8.84,217,81.42,264.26,187.23,7.89,21.5,19.66,41,25.72,63.41,8.9,24.77,14.22,50.67,12.25,78.55-3.79,53.8-8.78,106.08-31.18,153.93-34.13,72.94-92,123.42-167.57,159-71,33.51-146.89,62-225.37,55.8-53.93-4.25-107.42-16.08-159-34.28-27.91-11.85-55.15-26.94-81.36-48.17C148.74,794.77,99,710,81.74,614c-11.32-62.82-11.37-116.82,8.1-178.44C99.05,417.67,116.52,399.89,134.25,398.39Z" />
      <path class="cls-139"
        d="M127.67,399.75C211.42,423,284.09,379.4,352.12,322.18c19.6-16.49,45.8-31.18,76.77-45.79a302.94,302.94,0,0,1,153.66-27.81c113.26,8.9,217.92,81.93,264.79,188.49,7.68,21.35,19.14,40.86,25.13,63.13,8.67,24.58,13.83,50.32,11.65,78.08-4.21,53.56-9.32,105.81-31.8,153.73C818.1,805,760.5,855.52,685.15,891.18c-70.9,33.55-146.57,62.18-225.16,55.43a641,641,0,0,1-158.6-34.35c-27.87-11.72-55.06-26.72-81.21-48C143.88,796.52,93.35,712.68,75.29,617.06c-12-63.33-12-117.75,7.56-179.95C92.12,419.08,109.77,401.15,127.67,399.75Z" />
      <path class="cls-140"
        d="M121.16,401c84.27,24.5,157.19-19.22,225.29-77,19.56-16.6,45.8-31.44,76.89-46.19,48.87-23.44,102.07-32.38,154.18-28.27,113.62,9,218.83,82.45,265.31,189.75,7.48,21.22,18.64,40.71,24.56,62.85,8.44,24.41,13.44,50,11,77.61C873.8,633,868.58,685.23,846,733.21c-34.3,72.95-91.6,123.6-166.77,159.3-70.76,33.59-146.25,62.38-225,55.06a656.11,656.11,0,0,1-158.22-34.42c-27.83-11.58-55-26.5-81.05-47.77C139.11,798.15,87.74,715.26,68.92,620c-12.61-63.84-12.55-118.68,7-181.47C85.27,420.37,103.1,402.28,121.16,401Z" />
      <path class="cls-141"
        d="M114.79,402.05c84.77,25.7,158-18.11,226.13-76.52,19.51-16.72,45.79-31.7,77-46.6,49-23.81,102.4-32.86,154.7-28.71,114,9,219.74,83,265.83,191,7.29,21.07,18.14,40.55,24,62.57,8.21,24.23,13.05,49.62,10.43,77.15-5.05,53.08-10.38,105.28-33,153.32-34.39,73-91.38,123.69-166.38,159.42-70.61,33.64-145.93,62.59-224.75,54.69C395,943,342,932,290.86,913.89,263.07,902.44,236,887.61,210,866.32,134.46,799.62,82.25,717.7,62.68,622.8c-13.27-64.34-13.14-119.61,6.48-183C78.54,421.49,96.56,403.25,114.79,402.05Z" />
      <path class="cls-142"
        d="M108.59,402.93c85.29,26.92,158.71-17,227-76,19.47-16.83,45.79-32,77.1-47,49.14-24.18,102.74-33.33,155.23-29.16C682.21,259.86,788.53,334.24,834.24,443c7.08,20.92,17.63,40.4,23.42,62.28,8,24.05,12.65,49.28,9.81,76.68-5.47,52.86-10.91,105-33.64,153.13-34.48,73-91.17,123.78-166,159.54-70.47,33.68-145.6,62.8-224.54,54.33-53.57-5.75-106.52-16.48-157.47-34.55-27.75-11.31-54.79-26.06-80.74-47.37C130,800.9,76.93,720,56.61,625.41c-13.93-64.83-13.72-120.54,5.94-184.5C72,422.44,90.2,404,108.59,402.93Z" />
      <path class="cls-143"
        d="M102.62,403.62c85.8,28.12,159.47-15.85,227.8-75.46,19.43-16.94,45.8-32.22,77.21-47.42,49.28-24.56,103.08-33.82,155.75-29.61,114.68,9.15,221.56,84,266.88,193.51,6.88,20.79,17.12,40.25,22.84,62,7.75,23.87,12.27,48.93,9.21,76.22-5.9,52.61-11.45,104.75-34.26,152.91-34.56,73-90.95,123.88-165.59,159.67-70.33,33.73-145.29,63-224.34,54C384.64,943.3,331.84,932.84,281,914.8c-27.71-11.18-54.7-25.85-80.58-47.17C125.75,802,71.83,722,50.77,627.81c-14.6-65.32-14.31-121.46,5.4-186C65.68,423.18,84.06,404.62,102.62,403.62Z" />
      <path class="cls-144"
        d="M96.92,404.07c86.31,29.33,160.24-14.72,228.64-74.93,19.39-17.06,45.79-32.48,77.32-47.84C452.3,256.38,506.29,247,559.16,251.25c115,9.21,222.46,84.48,267.4,194.77,6.67,20.64,16.61,40.1,22.26,61.73,7.52,23.69,11.87,48.58,8.6,75.75-6.31,52.38-12,104.48-34.88,152.71-34.64,73-90.72,124-165.19,159.8-70.18,33.76-145,63.21-224.13,53.59-53.4-6.49-106.06-16.67-156.72-34.68-27.67-11-54.61-25.63-80.42-47C121.77,802.83,67,723.84,45.21,630,29.93,564.17,30.3,507.59,50.07,442.45,59.63,423.68,78.2,405,96.92,404.07Z" />
      <path class="cls-145"
        d="M91.54,404.26c86.83,30.55,161-13.59,229.49-74.4,19.34-17.17,45.78-32.74,77.42-48.24,49.55-25.3,103.75-34.77,156.8-30.51,115.39,9.27,223.37,85,267.92,196,6.48,20.5,16.12,39.94,21.7,61.45,7.28,23.51,11.48,48.23,8,75.28-6.73,52.15-12.51,104.22-35.49,152.51-34.73,73-90.5,124.06-164.8,159.92-70,33.81-144.65,63.43-223.91,53.23-53.32-6.86-105.84-16.77-156.35-34.75C244.67,903.87,217.78,889.37,192,868,118.13,803.42,62.5,725.43,40,631.9c-16-66.29-15.5-123.33,4.31-189C53.91,423.93,72.66,405.06,91.54,404.26Z" />
      <path class="cls-146"
        d="M86.54,404.17c87.34,31.76,161.77-12.46,230.32-73.87,19.3-17.28,45.79-33,77.54-48.65,49.68-25.67,104.08-35.25,157.32-31C667.46,260,776,336.2,820.16,448c6.28,20.36,15.61,39.79,21.12,61.17,7.05,23.33,11.09,47.88,7.38,74.81-7.16,51.91-13,104-36.1,152.31-34.82,73-90.29,124.15-164.41,160.05C578.26,930.17,503.81,960,424.44,949.18c-53.24-7.23-105.61-16.87-156-34.82-27.59-10.77-54.43-25.19-80.11-46.58-73.51-64-130-141-153.26-234.25C18.43,566.76,19,509.27,38.87,443,48.56,423.9,67.49,404.87,86.54,404.17Z" />
      <path class="cls-147"
        d="M82,403.77c87.84,33,162.53-11.32,231.16-73.33,19.25-17.4,45.78-33.26,77.64-49.07,49.82-26,104.42-35.72,157.85-31.4,116.09,9.39,225.18,86,269,198.54,6.07,20.21,15.1,39.64,20.54,60.89,6.82,23.15,10.7,47.53,6.77,74.35-7.58,51.67-13.58,103.69-36.72,152.1-34.91,73-90.07,124.24-164,160.17-69.75,33.9-144,63.86-223.51,52.5-53.15-7.6-105.38-17-155.59-34.89-27.55-10.64-54.34-25-79.95-46.38C112,803.73,54.58,727.76,30.66,634.85,13.24,567.63,14,509.67,33.89,442.78,43.64,423.56,62.75,404.38,82,403.77Z" />
      <path class="cls-148"
        d="M77.84,403.05c88.36,34.18,163.31-10.2,232-72.81,19.21-17.51,45.77-33.52,77.75-49.48,49.95-26.41,104.75-36.2,158.36-31.85,116.45,9.45,226.1,86.53,269.5,199.8,5.87,20.07,14.59,39.48,20,60.61,6.59,23,10.3,47.19,6.15,73.88-8,51.44-14.1,103.43-37.33,151.89-35,73-89.85,124.34-163.62,160.31-69.6,33.93-143.71,64.07-223.29,52.12-53.08-8-105.16-17.06-155.22-34.95-27.51-10.5-54.25-24.76-79.8-46.18-72.71-63-130.93-138-155.65-230.55C8.59,568.14,9.41,509.73,29.36,442.25,39.17,422.88,58.46,403.55,77.84,403.05Z" />
      <path class="cls-149"
        d="M74.25,402c88.87,35.39,164.07-9.06,232.84-72.28,19.17-17.62,45.78-33.78,77.86-49.88C435,253,490,243.11,543.84,247.5c116.8,9.51,227,87,270,201.05,5.67,19.93,14.08,39.33,19.39,60.33,6.36,22.79,9.92,46.84,5.55,73.41-8.42,51.22-14.64,103.17-37.95,151.69-35.08,73-89.63,124.43-163.22,160.43-69.46,34-143.41,64.29-223.09,51.76-53-8.33-104.93-17.16-154.84-35-27.48-10.36-54.17-24.54-79.64-46C107.75,802.71,48.65,728.76,23.2,636.48c-18.79-68.16-17.84-127,2.16-195.11C35.23,421.85,54.7,402.36,74.25,402Z" />
      <path class="cls-150"
        d="M71.21,400.48c89.39,36.6,164.84-7.93,233.69-71.75,19.12-17.73,45.77-34,78-50.3,50.22-27.16,105.41-37.07,159.41-32.75C659.41,255.45,770.18,333.23,812.81,448c5.47,19.79,13.58,39.18,18.83,60.05,6.12,22.62,9.57,46.51,4.93,72.95-8.74,51-15.17,102.9-38.56,151.49C762.84,805.5,708.6,857,635.18,893c-69.32,34-143.1,64.51-222.88,51.39-52.92-8.7-104.7-17.26-154.47-35.09-27.43-10.22-54.07-24.31-79.48-45.77-71.91-61.94-131.88-134.85-158-226.84C.78,568.1,1.86,508.75,21.92,440.1,31.84,420.43,51.5,400.78,71.21,400.48Z" />
      <path class="cls-151"
        d="M68.8,398.61c89.9,37.81,165.61-6.79,234.53-71.23,19.08-17.84,45.76-34.3,78.07-50.7,50.36-27.53,105.75-37.58,159.94-33.2,117.5,9.76,228.82,88.06,271.06,203.57,5.27,19.64,13.08,39,18.25,59.77,5.89,22.43,9.16,46.15,4.32,72.48-9.19,50.76-15.7,102.63-39.18,151.28-35.25,73-89.18,124.61-162.43,160.68-69.17,34.07-142.79,64.74-222.67,51-52.84-9.07-104.48-17.36-154.09-35.16-27.4-10.09-54-24.1-79.33-45.57C105.76,800.15,44.92,728.27,18,636.57-2.23,567.5-1,507.67,19.1,438.43,29.09,418.61,48.93,398.81,68.8,398.61Z" />
      <path class="cls-152"
        d="M67.06,396.3c90.41,39,166.38-5.65,235.37-70.69,19-17.95,45.76-34.56,78.18-51.11,50.49-27.91,106.08-38.09,160.46-33.65,117.85,9.76,229.72,88.57,271.58,204.82,5.07,19.5,12.57,38.88,17.68,59.49,5.66,22.26,8.75,45.81,3.71,72-9.65,50.53-16.23,102.38-39.79,151.08-35.34,73-89,124.71-162,160.81-69,34.11-142.49,65-222.46,50.66C357,930.29,305.5,922.26,256,904.5c-27.36-10-53.9-23.89-79.17-45.38C105.74,798.24,44,727.42,16.42,636c-21-69.51-19.62-129.83.54-199.65C27,416.36,47,396.4,67.06,396.3Z" />
      <path class="cls-153"
        d="M380.24,272.78c160.32-89.54,372.47,1,433.09,172,10.1,40.23,30.31,80.47,20.2,130.76S813.33,676.1,793.12,726.4c-40.41,70.4-90.92,120.7-161.64,160.93-70.71,30.18-141.43,60.35-222.25,50.29-80.82-20.11-161.64-20.11-232.36-80.47S45.54,726.4,15.23,635.87C-5,565.46-5,505.11,15.23,434.7c10.1-20.11,30.31-40.23,50.51-40.23,90.93,40.23,171.75,0,236.21-70.17A427.71,427.71,0,0,1,380.24,272.78Z" />
    </g>
  </g>
</svg>